<svg width="142" height="44" viewBox="0 0 142 44" fill="none" xmlns="http://www.w3.org/2000/svg">
<rect x="0.5" y="0.5" width="141" height="43" rx="19.5" fill="#274C5B"/>
<rect x="0.5" y="0.5" width="141" height="43" rx="19.5" stroke="#274C5B"/>
<path d="M30.3913 30.2244L22.4396 22.2727L30.3913 14.321L31.9254 15.8381L26.5987 21.1648H39.9794V23.3807H26.5987L31.9254 28.6989L30.3913 30.2244ZM51.2379 31V13.5455H53.8714V21.1307H62.5732V13.5455H65.2152V31H62.5732V23.3892H53.8714V31H51.2379ZM72.6555 31.2898C71.826 31.2898 71.076 31.1364 70.4055 30.8295C69.7351 30.517 69.2038 30.0653 68.8118 29.4744C68.4254 28.8835 68.2322 28.1591 68.2322 27.3011C68.2322 26.5625 68.3743 25.9545 68.6584 25.4773C68.9425 25 69.326 24.6222 69.8089 24.3438C70.2919 24.0653 70.8317 23.8551 71.4283 23.7131C72.0249 23.571 72.6328 23.4631 73.2521 23.3892C74.0362 23.2983 74.6726 23.2244 75.1612 23.1676C75.6499 23.1051 76.005 23.0057 76.2266 22.8693C76.4482 22.733 76.5589 22.5114 76.5589 22.2045V22.1449C76.5589 21.4006 76.3487 20.8239 75.9283 20.4148C75.5135 20.0057 74.8942 19.8011 74.0703 19.8011C73.2124 19.8011 72.5362 19.9915 72.0419 20.3722C71.5533 20.7472 71.2152 21.1648 71.0277 21.625L68.6328 21.0795C68.9169 20.2841 69.3317 19.642 69.8771 19.1534C70.4283 18.6591 71.0618 18.3011 71.7777 18.0795C72.4936 17.8523 73.2464 17.7386 74.0362 17.7386C74.5589 17.7386 75.1129 17.8011 75.6982 17.9261C76.2891 18.0455 76.8402 18.267 77.3516 18.5909C77.8686 18.9148 78.2919 19.3778 78.6214 19.9801C78.951 20.5767 79.1158 21.3523 79.1158 22.3068V31H76.6271V29.2102H76.5249C76.3601 29.5398 76.1129 29.8636 75.7834 30.1818C75.4538 30.5 75.0305 30.7642 74.5135 30.9744C73.9964 31.1847 73.3771 31.2898 72.6555 31.2898ZM73.2095 29.2443C73.9141 29.2443 74.5163 29.1051 75.0163 28.8267C75.522 28.5483 75.9055 28.1847 76.1669 27.7358C76.4339 27.2812 76.5675 26.7955 76.5675 26.2784V24.5909C76.4766 24.6818 76.3004 24.767 76.0391 24.8466C75.7834 24.9205 75.4908 24.9858 75.1612 25.0426C74.8317 25.0937 74.5107 25.142 74.1982 25.1875C73.8857 25.2273 73.6243 25.2614 73.4141 25.2898C72.9197 25.3523 72.468 25.4574 72.0589 25.6051C71.6555 25.7528 71.3317 25.9659 71.0874 26.2443C70.8487 26.517 70.7294 26.8807 70.7294 27.3352C70.7294 27.9659 70.9624 28.4432 71.4283 28.767C71.8942 29.0852 72.4879 29.2443 73.2095 29.2443ZM81.7344 27.5398H84.3423C84.3764 28.0739 84.6179 28.4858 85.0668 28.7756C85.5213 29.0653 86.1094 29.2102 86.831 29.2102C87.5639 29.2102 88.1889 29.054 88.706 28.7415C89.223 28.4233 89.4815 27.9318 89.4815 27.267C89.4815 26.8693 89.3821 26.5227 89.1832 26.2273C88.9901 25.9261 88.7145 25.6932 88.3565 25.5284C88.0043 25.3636 87.5866 25.2812 87.1037 25.2812H84.973V23.2784H87.1037C87.8253 23.2784 88.3651 23.1136 88.723 22.7841C89.081 22.4545 89.2599 22.0426 89.2599 21.5483C89.2599 21.0142 89.0668 20.5852 88.6804 20.2614C88.2997 19.9318 87.7685 19.767 87.0866 19.767C86.3935 19.767 85.8168 19.9233 85.3565 20.2358C84.8963 20.5426 84.6548 20.9403 84.6321 21.429H82.0582C82.0753 20.696 82.2969 20.054 82.723 19.5028C83.1548 18.946 83.7344 18.5142 84.4616 18.2074C85.1946 17.8949 86.027 17.7386 86.9588 17.7386C87.9304 17.7386 88.7713 17.8949 89.4815 18.2074C90.1918 18.5199 90.7401 18.9517 91.1264 19.5028C91.5185 20.054 91.7145 20.6875 91.7145 21.4034C91.7145 22.125 91.4986 22.7159 91.0668 23.1761C90.6406 23.6307 90.0838 23.9574 89.3963 24.1562V24.2926C89.902 24.3267 90.3509 24.4801 90.7429 24.7528C91.1349 25.0256 91.4418 25.3864 91.6634 25.8352C91.8849 26.2841 91.9957 26.7926 91.9957 27.3608C91.9957 28.1619 91.7741 28.8551 91.331 29.4403C90.8935 30.0256 90.2855 30.4773 89.5071 30.7955C88.7344 31.108 87.8509 31.2642 86.8565 31.2642C85.8906 31.2642 85.0241 31.1136 84.2571 30.8125C83.4957 30.5057 82.8906 30.0739 82.4418 29.517C81.9986 28.9602 81.7628 28.3011 81.7344 27.5398ZM98.4368 31.2898C97.6072 31.2898 96.8572 31.1364 96.1868 30.8295C95.5163 30.517 94.9851 30.0653 94.593 29.4744C94.2067 28.8835 94.0135 28.1591 94.0135 27.3011C94.0135 26.5625 94.1555 25.9545 94.4396 25.4773C94.7237 25 95.1072 24.6222 95.5902 24.3438C96.0732 24.0653 96.6129 23.8551 97.2095 23.7131C97.8061 23.571 98.4141 23.4631 99.0334 23.3892C99.8175 23.2983 100.454 23.2244 100.942 23.1676C101.431 23.1051 101.786 23.0057 102.008 22.8693C102.229 22.733 102.34 22.5114 102.34 22.2045V22.1449C102.34 21.4006 102.13 20.8239 101.71 20.4148C101.295 20.0057 100.675 19.8011 99.8516 19.8011C98.9936 19.8011 98.3175 19.9915 97.8232 20.3722C97.3345 20.7472 96.9964 21.1648 96.8089 21.625L94.4141 21.0795C94.6982 20.2841 95.1129 19.642 95.6584 19.1534C96.2095 18.6591 96.843 18.3011 97.5589 18.0795C98.2749 17.8523 99.0277 17.7386 99.8175 17.7386C100.34 17.7386 100.894 17.8011 101.479 17.9261C102.07 18.0455 102.621 18.267 103.133 18.5909C103.65 18.9148 104.073 19.3778 104.403 19.9801C104.732 20.5767 104.897 21.3523 104.897 22.3068V31H102.408V29.2102H102.306C102.141 29.5398 101.894 29.8636 101.565 30.1818C101.235 30.5 100.812 30.7642 100.295 30.9744C99.7777 31.1847 99.1584 31.2898 98.4368 31.2898ZM98.9908 29.2443C99.6953 29.2443 100.298 29.1051 100.798 28.8267C101.303 28.5483 101.687 28.1847 101.948 27.7358C102.215 27.2812 102.349 26.7955 102.349 26.2784V24.5909C102.258 24.6818 102.082 24.767 101.82 24.8466C101.565 24.9205 101.272 24.9858 100.942 25.0426C100.613 25.0937 100.292 25.142 99.9794 25.1875C99.6669 25.2273 99.4055 25.2614 99.1953 25.2898C98.701 25.3523 98.2493 25.4574 97.8402 25.6051C97.4368 25.7528 97.1129 25.9659 96.8686 26.2443C96.63 26.517 96.5107 26.8807 96.5107 27.3352C96.5107 27.9659 96.7436 28.4432 97.2095 28.767C97.6754 29.0852 98.2692 29.2443 98.9908 29.2443ZM107.013 34.7756V28.7926H108.078C108.351 28.5426 108.581 28.2443 108.768 27.8977C108.962 27.5511 109.124 27.1392 109.254 26.6619C109.391 26.1847 109.504 25.6278 109.595 24.9915C109.686 24.3494 109.766 23.6165 109.834 22.7926L110.243 17.9091H119.141V28.7926H121.152V34.7756H118.663V31H109.536V34.7756H107.013ZM110.805 28.7926H116.652V20.0909H112.527L112.254 22.7926C112.124 24.1676 111.959 25.3608 111.76 26.3722C111.561 27.3778 111.243 28.1847 110.805 28.7926Z" fill="white"/>
</svg>
