<svg width="60" height="60" viewBox="0 0 60 60" fill="none" xmlns="http://www.w3.org/2000/svg">
<path d="M30 7.5H12.5C11.1739 7.5 9.90215 8.02678 8.96447 8.96447C8.02678 9.90215 7.5 11.1739 7.5 12.5V47.5C7.5 48.8261 8.02678 50.0979 8.96447 51.0355C9.90215 51.9732 11.1739 52.5 12.5 52.5H47.5C48.8261 52.5 50.0979 51.9732 51.0355 51.0355C51.9732 50.0979 52.5 48.8261 52.5 47.5V30" stroke="black" stroke-width="5" stroke-linecap="round" stroke-linejoin="round"/>
<path d="M45.9377 6.56252C46.9323 5.56796 48.2812 5.00922 49.6877 5.00922C51.0943 5.00922 52.4432 5.56796 53.4377 6.56252C54.4323 7.55708 54.991 8.90599 54.991 10.3125C54.991 11.719 54.4323 13.068 53.4377 14.0625L30.9052 36.5975C30.3116 37.1906 29.5782 37.6248 28.7727 37.86L21.5902 39.96C21.3751 40.0228 21.1471 40.0265 20.93 39.9709C20.7129 39.9153 20.5148 39.8024 20.3564 39.6439C20.1979 39.4855 20.085 39.2873 20.0293 39.0702C19.9737 38.8532 19.9775 38.6251 20.0402 38.41L22.1402 31.2275C22.3766 30.4226 22.8116 29.6902 23.4052 29.0975L45.9377 6.56252Z" stroke="black" stroke-width="5" stroke-linecap="round" stroke-linejoin="round"/>
</svg>
