<svg width="44" height="44" viewBox="0 0 44 44" fill="none" xmlns="http://www.w3.org/2000/svg">
<path fill-rule="evenodd" clip-rule="evenodd" d="M33.88 20.3343C34.3214 20.7763 34.5694 21.3754 34.5694 22C34.5694 22.6246 34.3214 23.2237 33.88 23.6657L26.0229 31.5229C25.8071 31.7544 25.5468 31.9402 25.2577 32.069C24.9685 32.1979 24.6564 32.2671 24.3399 32.2727C24.0234 32.2783 23.7091 32.2201 23.4156 32.1015C23.122 31.983 22.8554 31.8065 22.6316 31.5827C22.4078 31.3589 22.2313 31.0922 22.1128 30.7987C21.9942 30.5052 21.936 30.1909 21.9416 29.8744C21.9472 29.5579 22.0164 29.2457 22.1453 28.9566C22.2741 28.6675 22.4598 28.4072 22.6914 28.1914L26.5257 24.3571H2.35714C1.73199 24.3571 1.13244 24.1088 0.690391 23.6667C0.248341 23.2247 0 22.6252 0 22C0 21.3748 0.248341 20.7753 0.690391 20.3332C1.13244 19.8912 1.73199 19.6429 2.35714 19.6429H26.5257L22.6914 15.8086C22.2751 15.3617 22.0484 14.7707 22.0592 14.1601C22.0699 13.5494 22.3173 12.9668 22.7492 12.5349C23.1811 12.103 23.7637 11.8557 24.3744 11.8449C24.985 11.8341 25.576 12.0608 26.0229 12.4771L33.88 20.3343ZM9.42857 33.7857C9.42857 33.1606 9.67691 32.561 10.119 32.119C10.561 31.6769 11.1606 31.4286 11.7857 31.4286C12.4109 31.4286 13.0104 31.6769 13.4525 32.119C13.8945 32.561 14.1429 33.1606 14.1429 33.7857V34.5714C14.1429 35.8217 14.6395 37.0208 15.5236 37.9049C16.4077 38.789 17.6068 39.2857 18.8571 39.2857H34.5714C35.8217 39.2857 37.0208 38.789 37.9049 37.9049C38.789 37.0208 39.2857 35.8217 39.2857 34.5714V9.42857C39.2857 8.17826 38.789 6.97917 37.9049 6.09507C37.0208 5.21097 35.8217 4.71429 34.5714 4.71429H18.8571C17.6068 4.71429 16.4077 5.21097 15.5236 6.09507C14.6395 6.97917 14.1429 8.17826 14.1429 9.42857V10.2143C14.1429 10.8394 13.8945 11.439 13.4525 11.881C13.0104 12.3231 12.4109 12.5714 11.7857 12.5714C11.1606 12.5714 10.561 12.3231 10.119 11.881C9.67691 11.439 9.42857 10.8394 9.42857 10.2143V9.42857C9.42857 6.92796 10.4219 4.52976 12.1901 2.76156C13.9583 0.993364 16.3565 0 18.8571 0H34.5714C37.072 0 39.4702 0.993364 41.2384 2.76156C43.0066 4.52976 44 6.92796 44 9.42857V34.5714C44 37.072 43.0066 39.4702 41.2384 41.2384C39.4702 43.0066 37.072 44 34.5714 44H18.8571C16.3565 44 13.9583 43.0066 12.1901 41.2384C10.4219 39.4702 9.42857 37.072 9.42857 34.5714V33.7857Z" fill="black"/>
</svg>
