<svg width="74" height="49" viewBox="0 0 74 49" fill="none" xmlns="http://www.w3.org/2000/svg">
<path d="M22.5681 20.1C22.3681 20.1 22.2681 20 22.2681 19.8V15.696L21.6681 16.296C21.5321 16.432 21.3721 16.5 21.1881 16.5H19.3521C19.1601 16.5 19.0001 16.432 18.8721 16.296L16.4721 13.896C16.3361 13.768 16.2681 13.608 16.2681 13.416V6.384C16.2681 6.192 16.3361 6.032 16.4721 5.904L18.8721 3.504C19.0001 3.368 19.1601 3.3 19.3521 3.3H25.7721C25.9721 3.3 26.0721 3.4 26.0721 3.6V19.8C26.0721 20 25.9721 20.1 25.7721 20.1H22.5681ZM20.7441 13.704H21.5841C21.8481 13.704 22.0281 13.652 22.1241 13.548C22.2201 13.444 22.2681 13.26 22.2681 12.996V6.096H20.7441C20.4881 6.096 20.3121 6.148 20.2161 6.252C20.1201 6.356 20.0721 6.54 20.0721 6.804V12.996C20.0721 13.26 20.1201 13.444 20.2161 13.548C20.3121 13.652 20.4881 13.704 20.7441 13.704ZM31.9615 16.5C31.7695 16.5 31.6095 16.432 31.4815 16.296L29.0815 13.896C28.9455 13.768 28.8775 13.608 28.8775 13.416V3.6C28.8775 3.4 28.9775 3.3 29.1775 3.3H32.3815C32.5815 3.3 32.6815 3.4 32.6815 3.6V12.936C32.6815 13.312 32.8655 13.5 33.2335 13.5H34.8775V3.6C34.8775 3.4 34.9775 3.3 35.1775 3.3H38.3815C38.5815 3.3 38.6815 3.4 38.6815 3.6V16.2C38.6815 16.4 38.5815 16.5 38.3815 16.5H31.9615ZM41.7869 16.5C41.5869 16.5 41.4869 16.4 41.4869 16.2V3.6C41.4869 3.4 41.5869 3.3 41.7869 3.3H44.9789C45.1789 3.3 45.2789 3.4 45.2789 3.6V16.2C45.2789 16.4 45.1789 16.5 44.9789 16.5H41.7869ZM41.7269 2.304C41.5669 2.304 41.4869 2.224 41.4869 2.064V0.539999C41.4869 0.38 41.5669 0.3 41.7269 0.3H45.0629C45.2069 0.3 45.2789 0.38 45.2789 0.539999V2.064C45.2789 2.224 45.2069 2.304 45.0629 2.304H41.7269ZM48.3368 16.5C48.1368 16.5 48.0368 16.4 48.0368 16.2V11.64C48.0368 11.568 48.0408 11.504 48.0488 11.448C48.0648 11.384 48.1008 11.328 48.1568 11.28L49.7168 10.02V9.6L48.1088 8.316C48.0528 8.268 48.0168 8.216 48.0008 8.16C47.9928 8.096 47.9888 8.028 47.9888 7.956V3.6C47.9888 3.4 48.0888 3.3 48.2888 3.3H51.4928C51.6928 3.3 51.7928 3.4 51.7928 3.6V8.316H53.9768V3.6C53.9768 3.4 54.0768 3.3 54.2768 3.3H57.4688C57.6688 3.3 57.7688 3.4 57.7688 3.6V7.956C57.7688 8.028 57.7648 8.096 57.7568 8.16C57.7488 8.216 57.7128 8.268 57.6488 8.316L56.0528 9.6V10.02L57.6968 11.28C57.7608 11.32 57.7968 11.372 57.8048 11.436C57.8128 11.5 57.8168 11.568 57.8168 11.64V16.2C57.8168 16.4 57.7168 16.5 57.5168 16.5H54.3128C54.1128 16.5 54.0128 16.4 54.0128 16.2V11.28H51.8288V16.2C51.8288 16.4 51.7288 16.5 51.5288 16.5H48.3368ZM0.695 48.5C0.428333 48.5 0.295 48.3667 0.295 48.1V30.74C0.295 30.4947 0.385667 30.2813 0.567 30.1L3.223 27.428C3.40433 27.2573 3.61767 27.172 3.863 27.172H7.527C7.77233 27.172 7.98567 27.2573 8.167 27.428L10.855 30.132H11.607L14.295 27.428C14.4763 27.2573 14.6897 27.172 14.935 27.172H18.583C18.839 27.172 19.0523 27.2573 19.223 27.428L21.895 30.1C22.0763 30.2813 22.167 30.4947 22.167 30.74V48.1C22.167 48.3667 22.0337 48.5 21.767 48.5H17.223C16.9563 48.5 16.823 48.3667 16.823 48.1V31.428H13.895V48.1C13.895 48.3667 13.7617 48.5 13.495 48.5H8.967C8.70033 48.5 8.567 48.3667 8.567 48.1V31.428H5.623V48.1C5.623 48.3667 5.48967 48.5 5.223 48.5H0.695ZM26.3018 48.5C26.0351 48.5 25.9018 48.3667 25.9018 48.1V33.268C25.9018 33.1293 25.9551 32.9693 26.0618 32.788L29.8538 27.412C29.9711 27.252 30.1418 27.172 30.3658 27.172H35.6618C35.8964 27.172 36.0671 27.252 36.1738 27.412L39.9818 32.788C40.0884 32.9373 40.1418 33.0973 40.1418 33.268V48.1C40.1418 48.3667 40.0084 48.5 39.7418 48.5H35.2138C34.9471 48.5 34.8138 48.3667 34.8138 48.1V41.3H31.2458V48.1C31.2458 48.3667 31.1124 48.5 30.8458 48.5H26.3018ZM33.0218 37.86C34.0031 37.86 34.6644 37.6467 35.0058 37.22C35.3578 36.7827 35.5338 35.956 35.5338 34.74C35.5338 33.524 35.3578 32.7027 35.0058 32.276C34.6644 31.8387 34.0031 31.62 33.0218 31.62C32.0511 31.62 31.3898 31.8387 31.0378 32.276C30.6964 32.7027 30.5258 33.524 30.5258 34.74C30.5258 35.956 30.6964 36.7827 31.0378 37.22C31.3898 37.6467 32.0511 37.86 33.0218 37.86ZM44.1768 48.5C43.9101 48.5 43.7768 48.3667 43.7768 48.1V27.572C43.7768 27.3053 43.9101 27.172 44.1768 27.172H53.9368C54.1928 27.172 54.4061 27.2573 54.5768 27.428L57.7768 30.628C57.9581 30.8093 58.0487 31.0227 58.0487 31.268V44.388C58.0487 44.644 57.9581 44.8573 57.7768 45.028L54.5768 48.228C54.4061 48.4093 54.1928 48.5 53.9368 48.5H44.1768ZM49.1208 44.228H52.0488C52.4968 44.228 52.7208 43.9293 52.7208 43.332V32.34C52.7208 31.732 52.4968 31.428 52.0488 31.428H49.1208V44.228ZM62.1638 48.5C61.8971 48.5 61.7638 48.3667 61.7638 48.1V27.572C61.7638 27.3053 61.8971 27.172 62.1638 27.172H73.3158C73.5824 27.172 73.7158 27.3053 73.7158 27.572V31.028C73.7158 31.2947 73.5824 31.428 73.3158 31.428H67.0918V35.972H72.7718C73.0384 35.972 73.1718 36.1053 73.1718 36.372V39.3C73.1718 39.5667 73.0384 39.7 72.7718 39.7H67.0918V44.228H73.3158C73.5824 44.228 73.7158 44.3613 73.7158 44.628V48.1C73.7158 48.3667 73.5824 48.5 73.3158 48.5H62.1638Z" fill="white"/>
</svg>
