<svg width="3000" height="100" viewBox="0 0 3000 100" fill="none" xmlns="http://www.w3.org/2000/svg">
<path fill-rule="evenodd" clip-rule="evenodd" d="M0 100L45 85C90 70 182.5 40 272.5 36.6667C362.5 33.3333 455 56.6667 545 65C637.5 73.3333 727.5 66.6667 817.5 65C910 63.3333 1000 66.6667 1090 60C1182.5 53.3333 1272.5 36.6667 1362.5 40C1455 43.3333 1545 66.6667 1637.5 66.6667C1727.5 66.6667 1817.5 43.3333 1910 40C2000 36.6667 2090 53.3333 2182.5 51.6667C2272.5 50 2362.5 30 2455 25C2545 20 2637.5 30 2727.5 41.6667C2817.5 53.3333 2910 66.6667 2955 73.3333L3000 80V-1.66893e-06H2955C2910 -1.66893e-06 2817.5 -1.66893e-06 2727.5 -1.66893e-06C2637.5 -1.66893e-06 2545 -1.66893e-06 2455 -1.66893e-06C2362.5 -1.66893e-06 2272.5 -1.66893e-06 2182.5 -1.66893e-06C2090 -1.66893e-06 2000 -1.66893e-06 1910 -1.66893e-06C1817.5 -1.66893e-06 1727.5 -1.66893e-06 1637.5 -1.66893e-06C1545 -1.66893e-06 1455 -1.66893e-06 1362.5 -1.66893e-06C1272.5 -1.66893e-06 1182.5 -1.66893e-06 1090 -1.66893e-06C1000 -1.66893e-06 910 -1.66893e-06 817.5 -1.66893e-06C727.5 -1.66893e-06 637.5 -1.66893e-06 545 -1.66893e-06C455 -1.66893e-06 362.5 -1.66893e-06 272.5 -1.66893e-06C182.5 -1.66893e-06 90 -1.66893e-06 45 -1.66893e-06H0V100Z" fill="#274C5B"/>
</svg>
