<svg width="3000" height="100" viewBox="0 0 3000 100" fill="none" xmlns="http://www.w3.org/2000/svg">
<path fill-rule="evenodd" clip-rule="evenodd" d="M0 90.6404L25.0261 92.6108C50.0521 94.3842 100.104 98.1281 150.156 96.3547C200.209 94.3842 250.261 86.8966 300.313 79.2118C350.365 71.7241 400.417 64.2365 450.469 67.9803C500.521 71.7241 550.574 86.8966 600.626 94.3842C650.678 101.872 700.73 101.872 750.782 94.3842C799.27 86.8966 849.322 71.7241 899.374 58.5222C949.427 45.3202 999.479 33.8916 1049.53 26.4039C1099.58 18.9163 1149.64 15.1724 1199.69 20.6897C1249.74 26.4039 1299.79 41.5764 1349.84 45.3202C1399.9 49.064 1449.95 41.5764 1500 41.5764C1550.05 41.5764 1600.1 49.064 1650.16 49.064C1700.21 49.064 1750.26 41.5764 1800.31 49.064C1850.37 56.5517 1900.42 79.2118 1950.47 88.67C2000.52 98.1281 2050.57 94.3842 2100.63 79.2118C2150.68 64.2365 2200.73 37.8325 2250.78 35.8621C2299.27 33.8916 2349.32 56.5517 2399.37 64.2365C2449.43 71.7241 2499.48 64.2365 2549.53 51.0345C2599.58 37.8325 2649.64 18.9163 2699.69 9.45813C2749.74 3.61353e-06 2799.79 3.61353e-06 2849.84 7.48769C2899.9 15.1724 2949.95 30.1478 2974.97 37.8325L3000 45.3202V3.61353e-06H2974.97C2949.95 3.61353e-06 2899.9 3.61353e-06 2849.84 3.61353e-06C2799.79 3.61353e-06 2749.74 3.61353e-06 2699.69 3.61353e-06C2649.64 3.61353e-06 2599.58 3.61353e-06 2549.53 3.61353e-06C2499.48 3.61353e-06 2449.43 3.61353e-06 2399.37 3.61353e-06C2349.32 3.61353e-06 2299.27 3.61353e-06 2250.78 3.61353e-06C2200.73 3.61353e-06 2150.68 3.61353e-06 2100.63 3.61353e-06C2050.57 3.61353e-06 2000.52 3.61353e-06 1950.47 3.61353e-06C1900.42 3.61353e-06 1850.37 3.61353e-06 1800.31 3.61353e-06C1750.26 3.61353e-06 1700.21 3.61353e-06 1650.16 3.61353e-06C1600.1 3.61353e-06 1550.05 3.61353e-06 1500 3.61353e-06C1449.95 3.61353e-06 1399.9 3.61353e-06 1349.84 3.61353e-06C1299.79 3.61353e-06 1249.74 3.61353e-06 1199.69 3.61353e-06C1149.64 3.61353e-06 1099.58 3.61353e-06 1049.53 3.61353e-06C999.479 3.61353e-06 949.427 3.61353e-06 899.374 3.61353e-06C849.322 3.61353e-06 799.27 3.61353e-06 750.782 3.61353e-06C700.73 3.61353e-06 650.678 3.61353e-06 600.626 3.61353e-06C550.574 3.61353e-06 500.521 3.61353e-06 450.469 3.61353e-06C400.417 3.61353e-06 350.365 3.61353e-06 300.313 3.61353e-06C250.261 3.61353e-06 200.209 3.61353e-06 150.156 3.61353e-06C100.104 3.61353e-06 50.0521 3.61353e-06 25.0261 3.61353e-06H0V90.6404Z" fill="#274C5B"/>
</svg>
