<svg width="3000" height="100" viewBox="0 0 3000 100" fill="none" xmlns="http://www.w3.org/2000/svg">
<path fill-rule="evenodd" clip-rule="evenodd" d="M3000 68.2345L2957.5 56.8621C2917.5 45.4897 2832.5 22.7448 2750 27.2938C2667.5 31.8428 2582.5 63.6855 2500 75.0579C2417.5 86.4303 2332.5 77.3324 2250 72.7834C2167.5 68.2345 2082.5 68.2345 2000 63.6855C1917.5 59.1366 1832.5 50.0386 1750 56.8621C1667.5 63.6855 1582.5 86.4303 1500 84.1559C1417.5 81.8814 1332.5 54.5876 1250 45.4897C1167.5 36.3917 1082.5 45.4897 1000 56.8621C917.5 68.2345 832.5 81.8814 750 90.9793C667.5 100.077 582.5 104.626 500 93.2538C417.5 81.8814 332.5 54.5876 250 47.7641C167.5 40.9407 82.4999 54.5876 42.4999 61.411L0 68.2345V0H42.4999C82.4999 0 167.5 0 250 0C332.5 0 417.5 0 500 0C582.5 0 667.5 0 750 0C832.5 0 917.5 0 1000 0C1082.5 0 1167.5 0 1250 0C1332.5 0 1417.5 0 1500 0C1582.5 0 1667.5 0 1750 0C1832.5 0 1917.5 0 2000 0C2082.5 0 2167.5 0 2250 0C2332.5 0 2417.5 0 2500 0C2582.5 0 2667.5 0 2750 0C2832.5 0 2917.5 0 2957.5 0H3000V68.2345Z" fill="#274C5B"/>
</svg>
