<svg width="3000" height="100" viewBox="0 0 3000 100" fill="none" xmlns="http://www.w3.org/2000/svg">
<path fill-rule="evenodd" clip-rule="evenodd" d="M0 68.2345L42.5 56.8621C82.5 45.4897 167.5 22.7448 250 27.2938C332.5 31.8428 417.5 63.6855 500 75.0579C582.5 86.4303 667.5 77.3324 750 72.7834C832.5 68.2345 917.5 68.2345 1000 63.6855C1082.5 59.1366 1167.5 50.0386 1250 56.8621C1332.5 63.6855 1417.5 86.4303 1500 84.1559C1582.5 81.8814 1667.5 54.5876 1750 45.4897C1832.5 36.3917 1917.5 45.4897 2000 56.8621C2082.5 68.2345 2167.5 81.8814 2250 90.9793C2332.5 100.077 2417.5 104.626 2500 93.2538C2582.5 81.8814 2667.5 54.5876 2750 47.7641C2832.5 40.9407 2917.5 54.5876 2957.5 61.411L3000 68.2345V0H2957.5C2917.5 0 2832.5 0 2750 0C2667.5 0 2582.5 0 2500 0C2417.5 0 2332.5 0 2250 0C2167.5 0 2082.5 0 2000 0C1917.5 0 1832.5 0 1750 0C1667.5 0 1582.5 0 1500 0C1417.5 0 1332.5 0 1250 0C1167.5 0 1082.5 0 1000 0C917.5 0 832.5 0 750 0C667.5 0 582.5 0 500 0C417.5 0 332.5 0 250 0C167.5 0 82.5 0 42.5 0H0V68.2345Z" fill="#274C5B"/>
</svg>
