<svg width="170" height="49" viewBox="0 0 170 49" fill="none" xmlns="http://www.w3.org/2000/svg">
<path d="M47.4543 26.25C47.9204 26.25 48.3674 26.0656 48.697 25.7374C49.0266 25.4093 49.2118 24.9641 49.2118 24.5C49.2118 24.0359 49.0266 23.5908 48.697 23.2626C48.3674 22.9344 47.9204 22.75 47.4543 22.75H42.1816V17.5H47.4543C47.9204 17.5 48.3674 17.3156 48.697 16.9874C49.0266 16.6592 49.2118 16.2141 49.2118 15.75C49.2118 15.2859 49.0266 14.8408 48.697 14.5126C48.3674 14.1844 47.9204 14 47.4543 14H42.1816C42.1816 12.1435 41.4409 10.363 40.1224 9.05025C38.804 7.7375 37.0158 7 35.1513 7V1.75C35.1513 1.28587 34.9661 0.840752 34.6365 0.512563C34.3069 0.184374 33.8599 0 33.3937 0C32.9276 0 32.4805 0.184374 32.1509 0.512563C31.8213 0.840752 31.6362 1.28587 31.6362 1.75V7H26.3635V1.75C26.3635 1.28587 26.1783 0.840752 25.8487 0.512563C25.5191 0.184374 25.072 0 24.6059 0C24.1398 0 23.6927 0.184374 23.3631 0.512563C23.0335 0.840752 22.8483 1.28587 22.8483 1.75V7H17.5756V1.75C17.5756 1.28587 17.3905 0.840752 17.0609 0.512563C16.7313 0.184374 16.2842 0 15.8181 0C15.3519 0 14.9049 0.184374 14.5753 0.512563C14.2457 0.840752 14.0605 1.28587 14.0605 1.75V7C12.196 7 10.4078 7.7375 9.08937 9.05025C7.77095 10.363 7.03026 12.1435 7.03026 14H1.75756C1.29143 14 0.844386 14.1844 0.514779 14.5126C0.185171 14.8408 0 15.2859 0 15.75C0 16.2141 0.185171 16.6592 0.514779 16.9874C0.844386 17.3156 1.29143 17.5 1.75756 17.5H7.03026V22.75H1.75756C1.29143 22.75 0.844386 22.9344 0.514779 23.2626C0.185171 23.5908 0 24.0359 0 24.5C0 24.9641 0.185171 25.4093 0.514779 25.7374C0.844386 26.0656 1.29143 26.25 1.75756 26.25H7.03026V31.5H1.75756C1.29143 31.5 0.844386 31.6844 0.514779 32.0126C0.185171 32.3407 0 32.7859 0 33.25C0 33.7141 0.185171 34.1592 0.514779 34.4874C0.844386 34.8156 1.29143 35 1.75756 35H7.03026C7.03026 36.8565 7.77095 38.637 9.08937 39.9497C10.4078 41.2625 12.196 42 14.0605 42V47.25C14.0605 47.7141 14.2457 48.1593 14.5753 48.4874C14.9049 48.8156 15.3519 49 15.8181 49C16.2842 49 16.7313 48.8156 17.0609 48.4874C17.3905 48.1593 17.5756 47.7141 17.5756 47.25V42H22.8483V47.25C22.8483 47.7141 23.0335 48.1593 23.3631 48.4874C23.6927 48.8156 24.1398 49 24.6059 49C25.072 49 25.5191 48.8156 25.8487 48.4874C26.1783 48.1593 26.3635 47.7141 26.3635 47.25V42H31.6362V47.25C31.6362 47.7141 31.8213 48.1593 32.1509 48.4874C32.4805 48.8156 32.9276 49 33.3937 49C33.8599 49 34.3069 48.8156 34.6365 48.4874C34.9661 48.1593 35.1513 47.7141 35.1513 47.25V42C37.0158 42 38.804 41.2625 40.1224 39.9497C41.4409 38.637 42.1816 36.8565 42.1816 35H47.4543C47.9204 35 48.3674 34.8156 48.697 34.4874C49.0266 34.1592 49.2118 33.7141 49.2118 33.25C49.2118 32.7859 49.0266 32.3407 48.697 32.0126C48.3674 31.6844 47.9204 31.5 47.4543 31.5H42.1816V26.25H47.4543ZM24.6059 33.25C22.2752 33.25 20.04 32.3281 18.392 30.6872C16.7439 29.0462 15.8181 26.8206 15.8181 24.5C15.8181 19.6735 19.7585 15.75 24.6059 15.75C29.4533 15.75 33.3937 19.6735 33.3937 24.5C33.3937 29.3265 29.4533 33.25 24.6059 33.25ZM24.6059 16.9874C21.6989 16.9874 17.0609 21.6055 17.0609 24.5C17.0609 27.3945 21.6989 31.5 24.6059 31.5C27.5129 31.5 31.6362 27.3945 31.6362 24.5C31.6362 21.6055 27.5129 16.9874 24.6059 16.9874Z" fill="#274C5B"/>
<path d="M36.0605 24.5458C36.0605 26.2652 35.6975 27.8479 34.9714 29.2938C34.265 30.7201 33.2642 31.9217 31.9691 32.8987C30.6935 33.8561 29.212 34.5204 27.5244 34.8917V38.7604H21.6962V34.8917C20.0086 34.5204 18.5172 33.8561 17.2221 32.8987C15.9465 31.9217 14.9458 30.7201 14.2197 29.2938C13.5132 27.8479 13.16 26.2652 13.16 24.5458C13.16 22.5137 13.6506 20.6869 14.6318 19.0651C15.6326 17.4434 16.9964 16.1734 18.7233 15.255C20.4697 14.3367 22.4321 13.8775 24.6103 13.8775C26.7885 13.8775 28.741 14.3367 30.4679 15.255C32.2143 16.1734 33.5782 17.4434 34.5593 19.0651C35.5601 20.6869 36.0605 22.5137 36.0605 24.5458ZM24.6103 30.4075C25.6503 30.4075 26.5922 30.1632 27.436 29.6748C28.2799 29.1863 28.9471 28.5024 29.4376 27.6232C29.9282 26.7244 30.1735 25.6986 30.1735 24.5458C30.1735 23.393 29.9282 22.377 29.4376 21.4977C28.9471 20.5989 28.2799 19.9053 27.436 19.4168C26.5922 18.9283 25.6503 18.6841 24.6103 18.6841C23.5702 18.6841 22.6283 18.9283 21.7845 19.4168C20.9407 19.9053 20.2735 20.5989 19.7829 21.4977C19.2923 22.377 19.047 23.393 19.047 24.5458C19.047 25.6986 19.2923 26.7244 19.7829 27.6232C20.2735 28.5024 20.9407 29.1863 21.7845 29.6748C22.6283 30.1632 23.5702 30.4075 24.6103 30.4075Z" fill="white"/>
<path d="M87.4843 13.379C90.088 13.379 92.1142 14.1525 93.563 15.6996C95.0328 17.2258 95.7677 19.4419 95.7677 22.3479V35.77H89.5315V22.5361C89.5315 21.219 89.1851 20.2259 88.4922 19.5569C87.7993 18.867 86.8754 18.522 85.7206 18.522C84.4818 18.522 83.4949 18.8879 82.76 19.6196C82.0461 20.3304 81.6891 21.4071 81.6891 22.8497V35.77H75.453V22.5361C75.453 21.219 75.1276 20.2259 74.4767 19.5569C73.8468 18.867 72.9754 18.522 71.8625 18.522C70.6657 18.522 69.7103 18.8879 68.9964 19.6196C68.2825 20.3304 67.9256 21.4071 67.9256 22.8497V35.77H61.6895V13.818H67.7366V16.2641C68.4085 15.3233 69.2694 14.6125 70.3193 14.1316C71.3901 13.6298 72.6289 13.379 74.0357 13.379C75.4845 13.379 76.7443 13.6403 77.8152 14.163C78.907 14.6856 79.7889 15.4487 80.4608 16.4522C81.2167 15.4487 82.2036 14.6856 83.4214 14.163C84.6392 13.6403 85.9935 13.379 87.4843 13.379Z" fill="#274C5B"/>
<path d="M110.312 13.379C112.391 13.379 114.218 13.7971 115.792 14.6334C117.388 15.4487 118.617 16.6509 119.477 18.2398C120.359 19.8078 120.8 21.6998 120.8 23.9159V35.77H114.564V30.9092H105.966V35.77H99.8242V23.9159C99.8242 21.6998 100.255 19.8078 101.116 18.2398C101.997 16.6509 103.226 15.4487 104.8 14.6334C106.396 13.7971 108.234 13.379 110.312 13.379ZM114.564 26.1111V23.3828C114.564 21.773 114.176 20.5604 113.399 19.745C112.622 18.9297 111.583 18.522 110.281 18.522C108.958 18.522 107.908 18.9297 107.131 19.745C106.354 20.5604 105.966 21.773 105.966 23.3828V26.1111H114.564Z" fill="#274C5B"/>
<path d="M125.019 13.818H135.444C137.859 13.818 140 14.2675 141.869 15.1665C143.738 16.0655 145.187 17.3408 146.215 18.9924C147.244 20.644 147.759 22.5779 147.759 24.794C147.759 27.0101 147.244 28.944 146.215 30.5956C145.187 32.2472 143.738 33.5225 141.869 34.4215C140 35.3205 137.859 35.77 135.444 35.77H125.019V13.818ZM135.192 30.8151C137.082 30.8151 138.594 30.282 139.727 29.2158C140.882 28.1495 141.46 26.6756 141.46 24.794C141.46 22.9124 140.882 21.4385 139.727 20.3722C138.594 19.306 137.082 18.7729 135.192 18.7729H131.255V30.8151H135.192Z" fill="#274C5B"/>
<path d="M170 34.1079C168.866 34.756 167.491 35.2682 165.874 35.6446C164.257 36.0209 162.578 36.209 160.835 36.209C158.483 36.209 156.478 35.9268 154.819 35.3623C153.181 34.7978 151.943 34.0138 151.103 33.0103C150.284 32.0068 149.874 30.8465 149.874 29.5294C149.874 28.3795 150.189 27.3655 150.819 26.4874C151.449 25.6094 152.32 24.9299 153.433 24.449C152.572 24.01 151.911 23.4037 151.449 22.6302C151.008 21.8357 150.788 20.9681 150.788 20.0273C150.788 18.8147 151.166 17.7066 151.922 16.7031C152.698 15.6996 153.874 14.8947 155.449 14.2884C157.024 13.6821 158.966 13.379 161.276 13.379C162.725 13.379 164.152 13.5149 165.559 13.7866C166.966 14.0584 168.205 14.4243 169.276 14.8842L167.575 19.5255C165.622 18.6683 163.606 18.2398 161.528 18.2398C160.037 18.2398 158.924 18.4384 158.189 18.8356C157.454 19.2119 157.087 19.745 157.087 20.435C157.087 21.6894 158 22.3166 159.827 22.3166H166.063V27.0519H159.417C158.347 27.0519 157.538 27.2296 156.992 27.585C156.446 27.9195 156.173 28.4213 156.173 29.0903C156.173 29.8011 156.572 30.3552 157.37 30.7524C158.168 31.1496 159.407 31.3482 161.087 31.3482C162.284 31.3482 163.512 31.1914 164.772 30.8778C166.053 30.5433 167.165 30.0938 168.11 29.5294L170 34.1079Z" fill="#274C5B"/>
</svg>
