<svg width="100" height="100" viewBox="0 0 100 100" fill="none" xmlns="http://www.w3.org/2000/svg">
<path d="M96.4286 53.5714C97.3758 53.5714 98.2842 53.1952 98.954 52.5254C99.6237 51.8556 100 50.9472 100 50C100 49.0528 99.6237 48.1444 98.954 47.4746C98.2842 46.8048 97.3758 46.4286 96.4286 46.4286H85.7143V35.7143H96.4286C97.3758 35.7143 98.2842 35.338 98.954 34.6682C99.6237 33.9985 100 33.0901 100 32.1429C100 31.1957 99.6237 30.2872 98.954 29.6175C98.2842 28.9477 97.3758 28.5714 96.4286 28.5714H85.7143C85.7143 24.7826 84.2092 21.149 81.5301 18.4699C78.851 15.7908 75.2174 14.2857 71.4286 14.2857V3.57143C71.4286 2.62423 71.0523 1.71582 70.3825 1.04605C69.7128 0.376274 68.8043 0 67.8571 0C66.9099 0 66.0015 0.376274 65.3317 1.04605C64.662 1.71582 64.2857 2.62423 64.2857 3.57143V14.2857H53.5714V3.57143C53.5714 2.62423 53.1952 1.71582 52.5254 1.04605C51.8556 0.376274 50.9472 0 50 0C49.0528 0 48.1444 0.376274 47.4746 1.04605C46.8048 1.71582 46.4286 2.62423 46.4286 3.57143V14.2857H35.7143V3.57143C35.7143 2.62423 35.338 1.71582 34.6682 1.04605C33.9985 0.376274 33.0901 0 32.1429 0C31.1957 0 30.2872 0.376274 29.6175 1.04605C28.9477 1.71582 28.5714 2.62423 28.5714 3.57143V14.2857C24.7826 14.2857 21.149 15.7908 18.4699 18.4699C15.7908 21.149 14.2857 24.7826 14.2857 28.5714H3.57143C2.62423 28.5714 1.71582 28.9477 1.04605 29.6175C0.376274 30.2872 0 31.1957 0 32.1429C0 33.0901 0.376274 33.9985 1.04605 34.6682C1.71582 35.338 2.62423 35.7143 3.57143 35.7143H14.2857V46.4286H3.57143C2.62423 46.4286 1.71582 46.8048 1.04605 47.4746C0.376274 48.1444 0 49.0528 0 50C0 50.9472 0.376274 51.8556 1.04605 52.5254C1.71582 53.1952 2.62423 53.5714 3.57143 53.5714H14.2857V64.2857H3.57143C2.62423 64.2857 1.71582 64.662 1.04605 65.3317C0.376274 66.0015 0 66.9099 0 67.8571C0 68.8043 0.376274 69.7128 1.04605 70.3825C1.71582 71.0523 2.62423 71.4286 3.57143 71.4286H14.2857C14.2857 75.2174 15.7908 78.851 18.4699 81.5301C21.149 84.2092 24.7826 85.7143 28.5714 85.7143V96.4286C28.5714 97.3758 28.9477 98.2842 29.6175 98.954C30.2872 99.6237 31.1957 100 32.1429 100C33.0901 100 33.9985 99.6237 34.6682 98.954C35.338 98.2842 35.7143 97.3758 35.7143 96.4286V85.7143H46.4286V96.4286C46.4286 97.3758 46.8048 98.2842 47.4746 98.954C48.1444 99.6237 49.0528 100 50 100C50.9472 100 51.8556 99.6237 52.5254 98.954C53.1952 98.2842 53.5714 97.3758 53.5714 96.4286V85.7143H64.2857V96.4286C64.2857 97.3758 64.662 98.2842 65.3317 98.954C66.0015 99.6237 66.9099 100 67.8571 100C68.8043 100 69.7128 99.6237 70.3825 98.954C71.0523 98.2842 71.4286 97.3758 71.4286 96.4286V85.7143C75.2174 85.7143 78.851 84.2092 81.5301 81.5301C84.2092 78.851 85.7143 75.2174 85.7143 71.4286H96.4286C97.3758 71.4286 98.2842 71.0523 98.954 70.3825C99.6237 69.7128 100 68.8043 100 67.8571C100 66.9099 99.6237 66.0015 98.954 65.3317C98.2842 64.662 97.3758 64.2857 96.4286 64.2857H85.7143V53.5714H96.4286ZM50 67.8571C45.264 67.8571 40.722 65.9758 37.3731 62.6269C34.0242 59.278 32.1429 54.736 32.1429 50C32.1429 40.15 40.15 32.1429 50 32.1429C59.85 32.1429 67.8571 40.15 67.8571 50C67.8571 59.85 59.85 67.8571 50 67.8571ZM50 34.6682C44.0929 34.6682 34.6682 44.0929 34.6682 50C34.6682 55.9071 44.0929 64.2857 50 64.2857C55.9071 64.2857 64.2857 55.9071 64.2857 50C64.2857 44.0929 55.9071 34.6682 50 34.6682Z" fill="#274C5B"/>
<path d="M73.2762 50.0935C73.2762 53.6025 72.5385 56.8324 71.0631 59.7832C69.6276 62.6941 67.5939 65.1464 64.9622 67.1402C62.3703 69.0941 59.3597 70.4498 55.9304 71.2075V79.1028H44.0874V71.2075C40.6581 70.4498 37.6276 69.0941 34.9958 67.1402C32.4039 65.1464 30.3702 62.6941 28.8949 59.7832C27.4593 56.8324 26.7416 53.6025 26.7416 50.0935C26.7416 45.9464 27.7385 42.2181 29.7322 38.9084C31.7659 35.5988 34.5372 33.0069 38.0463 31.1327C41.5952 29.2586 45.5827 28.3215 50.0089 28.3215C54.435 28.3215 58.4026 29.2586 61.9117 31.1327C65.4606 33.0069 68.2319 35.5988 70.2257 38.9084C72.2593 42.2181 73.2762 45.9464 73.2762 50.0935ZM50.0089 62.0561C52.1223 62.0561 54.0363 61.5576 55.7509 60.5607C57.4656 59.5639 58.8213 58.1682 59.8182 56.3738C60.8151 54.5396 61.3135 52.4461 61.3135 50.0935C61.3135 47.7408 60.8151 45.6673 59.8182 43.8729C58.8213 42.0386 57.4656 40.6231 55.7509 39.6262C54.0363 38.6293 52.1223 38.1308 50.0089 38.1308C47.8955 38.1308 45.9815 38.6293 44.2668 39.6262C42.5522 40.6231 41.1964 42.0386 40.1995 43.8729C39.2026 45.6673 38.7042 47.7408 38.7042 50.0935C38.7042 52.4461 39.2026 54.5396 40.1995 56.3738C41.1964 58.1682 42.5522 59.5639 44.2668 60.5607C45.9815 61.5576 47.8955 62.0561 50.0089 62.0561Z" fill="white"/>
</svg>
