<svg width="39" height="30" viewBox="0 0 39 30" fill="none" xmlns="http://www.w3.org/2000/svg">
<g clip-path="url(#clip0_99_2128)">
<path d="M36.6324 2.25598V2.48196H36.1925V3.15826H36.6324V3.38342H36.1925V4.22072H35.9323V2.25598H36.6324ZM36.6324 1.45178C36.1539 1.4535 35.6955 1.64233 35.3571 1.97708C35.0188 2.31183 34.8279 2.76535 34.8262 3.23876C34.8262 3.70542 35.0211 4.15615 35.3631 4.4945C35.5299 4.65895 35.7279 4.78914 35.9458 4.87757C36.1636 4.96601 36.397 5.01094 36.6324 5.0098V4.83245C36.2091 4.83245 35.7865 4.67185 35.4937 4.36578C35.1839 4.0593 35.0054 3.6572 35.0054 3.23876C35.0054 2.80356 35.1839 2.40105 35.4937 2.0958C35.7865 1.79013 36.2091 1.62831 36.6324 1.62831V1.45178ZM36.6324 3.38342V3.15826H36.8113C36.9418 3.15826 37.0393 3.12597 37.1207 3.07816C37.1855 3.02913 37.2186 2.94862 37.2186 2.81949C37.2186 2.67484 37.1694 2.5784 37.0719 2.53059C37.0013 2.49566 36.9229 2.4788 36.8439 2.48155L36.6324 2.48196V2.25598H36.8439C36.9906 2.25598 37.1207 2.27233 37.2186 2.32055C37.3974 2.40105 37.4949 2.56205 37.4949 2.78803C37.4949 2.90081 37.4796 2.99725 37.4296 3.07816C37.3706 3.14891 37.2992 3.20868 37.219 3.25469C37.2995 3.28698 37.3487 3.3356 37.3974 3.38342C37.4296 3.43204 37.4457 3.51214 37.4623 3.62492V3.88318C37.4623 3.96327 37.4792 4.0119 37.4792 4.05889C37.4949 4.12346 37.5275 4.15615 37.5767 4.1725V4.22072H37.2347C37.2347 4.20437 37.2186 4.1725 37.2186 4.15615C37.2186 4.12346 37.2186 4.07606 37.202 3.99474L37.1855 3.67314C37.1855 3.54442 37.1372 3.46433 37.0393 3.4157C36.9906 3.38342 36.9088 3.38342 36.8113 3.38342H36.6324ZM36.6324 5.0098C37.1207 5.0098 37.5763 4.83245 37.9018 4.4945C38.2438 4.15615 38.4391 3.70542 38.4391 3.23876C38.4389 3.00218 38.3913 2.76799 38.2991 2.54971C38.2068 2.33144 38.0718 2.13341 37.9018 1.96708C37.5767 1.62831 37.1207 1.45178 36.6324 1.45178V1.62831C37.0719 1.62831 37.4792 1.79013 37.7882 2.0958C38.081 2.40105 38.2599 2.80356 38.2599 3.23876C38.2599 4.12346 37.5275 4.83245 36.6324 4.83245V5.0098Z" fill="black"/>
<path d="M19.4308 29.8363C22.0347 29.8363 25.0289 28.8375 27.031 28.0811C31.5551 26.391 33.3288 25.521 34.5006 25.0221C37.8686 23.5735 38.4386 22.511 38.4386 18.8557V11.6588C38.4386 7.71421 37.4948 6.16915 34.159 4.65473C33.4754 4.34948 32.6943 3.96332 28.3821 2.40109C23.4337 0.599 20.9603 0.163391 19.4312 0.163391C17.9021 0.163391 15.4288 0.598591 10.4977 2.40109C6.18508 3.96332 5.40441 4.34948 4.70429 4.65473C1.38376 6.16915 0.439941 7.71421 0.439941 11.6588V18.8561C0.439941 22.5114 0.993843 23.5739 4.37839 25.0225C5.55063 25.5214 7.32468 26.3914 11.8484 28.0816C13.8336 28.8379 16.8117 29.8367 19.4312 29.8367L19.4308 29.8363Z" fill="white"/>
<path d="M19.4308 28.7574C22.409 28.7574 25.7617 27.453 28.2838 26.4715C32.2871 24.9252 32.4825 24.8451 34.4184 23.9914C36.7303 22.9613 37.3647 21.8988 37.3647 19.1466V11.1598C37.3647 7.58584 35.7538 6.37832 33.4102 5.42823C32.5965 5.07394 32.2549 4.86431 28.121 3.35112C24.72 2.09579 21.6113 1.16205 19.4308 1.16205C17.2512 1.16205 14.1595 2.09579 10.7584 3.35112C6.62419 4.86472 6.28259 5.07394 5.45236 5.42823C3.12523 6.37832 1.4978 7.58584 1.4978 11.1598V19.1462C1.4978 21.8984 2.14877 22.9609 4.45938 23.991C6.39618 24.8447 6.59197 24.9248 10.5948 26.4711C13.1174 27.4526 16.4536 28.7574 19.4308 28.7574Z" fill="#231F20"/>
<path d="M5.28998 13.0437C4.411 13.1078 4.15037 12.0131 4.15037 10.9992C4.15037 9.63031 4.6229 8.50329 5.22472 8.34228C5.76251 8.19803 6.07106 8.85798 6.13632 9.5825L7.71418 9.24456C7.58448 7.15069 6.47791 6.63581 5.14376 6.86097C3.41844 7.16704 2.50684 9.03411 2.50684 11.1598C2.50684 13.3007 3.76003 14.7497 5.32261 14.686C6.68981 14.6374 7.77944 13.3657 7.82859 11.0311L6.15243 11.273C6.18547 12.1581 5.84264 12.995 5.28998 13.0437ZM10.9372 12.6407H10.8554C10.0748 12.5762 9.83024 11.0471 9.81454 9.93597C9.79802 8.95401 10.0095 7.0706 10.6927 6.74859C10.7418 6.73225 10.8071 6.7159 10.8554 6.69956C11.5394 6.65175 11.8641 8.34228 11.8972 9.56574C11.9463 11.1598 11.7014 12.6085 10.9372 12.6407ZM10.8554 4.8329C10.8224 4.84843 10.7902 4.84843 10.7418 4.86436C8.65883 5.3155 8.04049 7.64923 8.07271 10.2098C8.08882 12.9791 9.24453 14.6055 10.8554 14.686H10.986C13.183 14.686 13.9149 12.0609 13.8335 9.25968C13.7365 6.58718 12.5969 4.54276 10.8554 4.8329ZM17.3816 12.1581H17.2999C16.4378 12.0772 16.1611 9.93597 16.1284 8.58379C16.0793 7.18298 16.4378 5.26687 17.2024 4.96162C17.235 4.94527 17.2672 4.92893 17.2999 4.92893C18.114 4.78427 18.423 6.95782 18.4713 8.48694C18.5204 10.4194 18.2111 12.0944 17.3816 12.1581ZM17.2999 2.73944C17.235 2.73944 17.1698 2.75579 17.1049 2.77214C15.233 3.17424 14.1103 5.84673 14.2082 9.11583C14.3052 12.5443 15.5262 14.5573 17.2999 14.686H17.463C19.2197 14.7019 20.7488 12.4638 20.6187 8.29406C20.5213 5.13815 19.4469 2.41785 17.2999 2.73944ZM26.3473 14.5732H30.7901V12.7217L28.235 12.5443V10.6123L30.3023 10.9183V9.03411L28.235 8.59972V6.94147L30.7901 7.6333V5.95951L26.3473 4.43039V14.5732ZM33.8335 9.8236C33.817 9.80725 33.8004 9.80725 33.7839 9.80725C33.4589 9.7431 32.9545 9.63031 32.9545 9.63031V8.26219C32.9545 8.26219 33.2965 8.35822 33.7843 8.50329H33.8335C34.3539 8.64835 34.6142 9.00223 34.6142 9.48565C34.6142 9.88816 34.2408 9.90451 33.8335 9.8236ZM36.0144 13.5908C36.0466 12.2227 35.9814 11.4659 35.0863 10.9183C35.4766 10.8215 35.9326 10.403 35.9983 9.72716C36.1123 8.59972 35.7534 7.68233 34.0446 7.08695L33.7843 7.00604L31.3597 6.18549V14.5732H32.9545V11.3208C32.9545 11.3208 33.1007 11.3208 33.4101 11.385C33.5406 11.4169 33.6703 11.4496 33.7843 11.5145C34.3378 11.7875 34.6146 12.3674 34.6146 13.3975C34.6146 14.1221 34.5985 14.5732 34.924 14.5732H36.2094V14.4122C35.9814 14.4122 35.9983 14.1384 36.0144 13.5908ZM23.2552 3.36752L21.1239 2.64301V14.5732H25.6311V12.3343L23.2552 12.1577V3.36752Z" fill="white"/>
<path d="M5.42005 19.8221L4.73645 15.3459H2.91406V22.1734L4.16726 22.5911V18.1148L4.85004 22.8162L5.79468 23.1542L6.78683 18.4528V23.4933L8.2193 23.9915V15.3455H6.29861L5.42005 19.8221ZM10.9202 21.1739L11.653 17.841L12.1734 21.4318L10.9202 21.1739ZM10.7418 15.3455L8.47993 24.0568L10.2209 24.6682L10.5948 22.9453L12.4176 23.4284L12.7591 25.5369L14.8104 26.2292L12.7761 15.3455H10.7418ZM26.3473 25.4568L30.7897 23.8954V22.2368L28.2515 22.9617V21.1265L30.3019 20.6754V18.8234L28.2515 19.1127V17.3576L30.7897 17.1811V15.3296H26.3473V25.4568ZM21.1073 17.9056L22.458 17.8092V26.7608L24.5567 26.069V17.6318L25.6315 17.5517V15.33H21.1073V17.9056ZM33.7843 18.3077C33.736 18.3077 33.7029 18.3241 33.6538 18.3241C33.2634 18.3723 32.9545 18.4364 32.9545 18.4364V17.0037C32.9545 17.0037 33.2312 16.9719 33.7847 16.9392H33.8004C34.2403 16.9073 34.598 17.1329 34.598 17.5521C34.598 18.0025 34.2073 18.2272 33.7843 18.3077ZM35.9813 21.0623C35.9813 19.6288 35.5583 19.2419 34.9892 19.0008C35.4609 18.7748 36.0144 18.3878 36.0144 17.2943C36.0144 15.9413 35.1837 15.33 33.8004 15.33H31.3597V23.734L32.9549 23.1709V20.0632C32.9549 20.0632 33.1498 20.0154 33.4266 19.9664C33.5567 19.9353 33.6707 19.9353 33.7843 19.9664C34.2568 20.0632 34.6145 20.5626 34.6311 21.4644V22.0917C34.6311 22.3491 34.6798 22.5588 35.1032 22.4141L36.1771 22.0758V21.851C35.9648 21.9156 35.9813 21.3839 35.9813 21.0623ZM16.9256 18.4859C16.8934 17.8893 17.3325 17.4868 17.7554 17.535C18.0648 17.5677 18.2436 17.745 18.3733 18.0662C18.4551 18.2914 18.439 18.5014 18.439 18.7266L20.4564 18.9199C20.6344 16.7622 19.7236 15.265 17.8211 15.2331C16.3395 15.2004 15.0214 16.5694 15.0541 18.4859C15.1358 21.625 18.8289 21.2863 18.8612 24.1852C18.8777 24.6359 18.634 25.0703 18.1784 25.022C17.9186 24.9902 17.5766 24.8451 17.4295 24.5717C17.2837 24.3143 17.1693 23.9277 17.1375 23.2833L15.1676 22.833C15.1515 24.6682 15.8029 26.6321 17.7554 27.0505C19.6583 27.4694 21.3837 25.9403 20.9446 23.2996C20.4237 20.2733 17.0074 20.0951 16.9256 18.4859Z" fill="white"/>
</g>
<defs>
<clipPath id="clip0_99_2128">
<rect width="38" height="30" fill="white" transform="translate(0.439941)"/>
</clipPath>
</defs>
</svg>
