<svg width="120" height="30" viewBox="0 0 120 30" fill="none" xmlns="http://www.w3.org/2000/svg">
<g clip-path="url(#clip0_99_2122)">
<path d="M17.3435 0C17.3435 0 19.8028 5.0306 19.3623 7.12352C19.3623 7.12352 25.8223 9.21653 26.5198 12.6684C26.5198 12.6315 30.0433 8.00474 17.3435 0ZM14.8475 7.52745C15.4717 8.84958 15.7652 10.2816 16.1323 11.7504L12.4619 10.3549C12.7922 8.11508 10.6266 4.73683 10.6266 4.73683L14.8475 7.52745ZM8.31413 10.9792C8.71782 12.044 9.195 13.4026 9.41524 14.5776L6.11158 13.77C6.44194 11.53 4.34985 8.84958 4.34985 8.84958L8.31413 10.9792Z" fill="#231F20"/>
<path d="M15.545 5.61798C15.545 5.61798 30.3372 16.0098 31.3282 20.0491C32.0622 23.0968 29.9333 25.8875 29.9333 25.8875C29.9333 25.8875 28.7955 17.9558 0.459229 30C3.32215 26.8052 4.90043 22.6928 4.46004 18.2863C4.27651 16.487 3.83612 14.7613 3.06512 13.2191L9.70887 16.7073C9.70887 16.8174 9.70887 16.9276 9.74575 17.0376C10.0025 19.7185 9.81907 22.3621 9.19524 24.7856C10.5534 21.9217 11.214 18.6534 10.8836 15.2752C10.7 13.219 10.1862 11.2728 9.37868 9.51032L16.4629 14.247C16.4994 14.4673 16.4994 14.7244 16.5362 14.9448C16.8298 17.9193 16.5362 20.8201 15.7654 23.4638C17.4171 20.3796 18.2614 16.7808 17.8943 13.0721C17.6371 10.3548 16.8295 7.85779 15.545 5.61798Z" fill="#231F20"/>
<path d="M33.604 18.8372C33.604 23.097 37.1276 26.0711 41.6056 25.8875C44.2851 25.7774 45.8635 24.7857 46.414 24.5288V20.8568H45.8635C45.3497 23.0969 43.9915 24.9695 41.6424 24.9695C38.7427 24.9695 36.5038 22.1422 36.5038 18.8371C36.5038 15.5325 38.7792 12.7049 41.6424 12.7049C43.9915 12.7049 45.3497 14.5409 45.8635 16.8173H46.414V13.1456C45.8635 12.8887 44.2851 11.9339 41.6056 11.7869C37.1276 11.6033 33.604 14.5776 33.604 18.8372ZM54.7094 11.7868C50.7819 11.7868 47.7352 14.9448 47.7352 18.8739C47.7352 22.7663 50.7819 25.9609 54.7094 25.9609C58.637 25.9609 61.6833 22.8029 61.6833 18.8739C61.6832 14.9448 58.6369 11.7868 54.7094 11.7868ZM54.7094 25.0797C52.2502 25.0797 50.5985 22.1788 50.5985 18.8372C50.5985 15.5325 52.2502 12.5948 54.7094 12.5948C57.1687 12.5948 58.8203 15.4957 58.8203 18.8372C58.8203 22.1421 57.1686 25.0797 54.7094 25.0797ZM77.6868 14.6878C77.6868 13.5496 78.8613 12.6316 80.0726 12.5948C81.3941 12.5948 82.7156 13.1824 83.4127 15.7527H83.7799V12.6685C83.2294 12.4847 81.908 11.7868 80.0358 11.7868C77.7604 11.7868 75.4846 13.1823 75.4846 15.7895C75.4846 20.4529 81.8711 19.5718 81.8711 22.6929C81.8711 24.2717 80.917 25.0065 79.4488 25.0065C78.0174 25.0065 76.3655 23.8312 75.8149 21.4812H75.3376V24.8595C75.925 25.0429 77.4298 25.9243 79.3752 25.9243C82.7522 25.9243 84.4038 23.6843 84.4038 21.6646C84.4406 16.6708 77.6868 18.1761 77.6868 14.6878ZM103.087 13.476C103.087 13.1823 103.27 12.9253 103.491 12.7785L104.371 12.3011V12.0808H99.1227V12.3011L100.004 12.7785C100.261 12.9252 100.407 13.1823 100.407 13.476V24.235C100.407 24.529 100.224 24.7857 100.004 24.9328L99.1227 25.4103V25.6306H104.371V25.4103L103.491 24.9328C103.234 24.7859 103.087 24.529 103.087 24.235V13.476ZM61.7933 12.0809V12.3012L62.6745 12.7786C62.9313 12.9253 63.0782 13.1824 63.0782 13.4761V24.2351C63.0782 24.5291 62.8947 24.7858 62.6745 24.9329L61.7933 25.4104V25.6307H67.0425V25.4104L66.1614 24.9329C65.9044 24.786 65.7576 24.5291 65.7576 24.2351V13.476C65.7576 13.2926 65.831 13.1457 65.9044 12.9988C65.9778 12.8887 66.0879 12.8518 66.2348 12.8518H67.9232C68.9507 12.8518 70.0521 14.0636 70.0521 15.5692V16.3402C70.0521 17.8456 69.0612 18.8739 67.9232 18.8739H66.8954C66.8954 18.8739 70.1987 24.5655 70.7129 25.1898C71.4469 26.1079 73.8695 27.3196 75.7414 26.9158C73.9061 25.9243 72.181 22.7665 70.7494 20.1225C69.9786 20.0124 69.4648 19.7554 69.1346 19.535C72.0342 19.535 72.7683 17.1481 72.7683 15.9732C72.7683 12.7786 70.5293 12.1175 67.9968 12.1175H61.7934L61.7933 12.0809ZM105.473 12.0809V12.3012L106.353 12.7786C106.611 12.9253 106.757 13.1824 106.757 13.4761V24.2351C106.757 24.5291 106.574 24.7858 106.353 24.9329L105.473 25.4104V25.6307H110.721V25.4104L109.84 24.9329C109.583 24.786 109.437 24.5291 109.437 24.2351V13.476C109.437 13.2926 109.51 13.1457 109.583 12.9988C109.657 12.8887 109.767 12.8518 109.914 12.8518H111.602C112.63 12.8518 113.731 14.0636 113.731 15.5692V16.3402C113.731 17.8456 112.74 18.8739 111.602 18.8739H110.575C110.575 18.8739 113.878 24.5655 114.392 25.1898C115.126 26.1079 117.549 27.3196 119.421 26.9158C117.585 25.9243 115.86 22.7665 114.429 20.1225C113.658 20.0124 113.144 19.7554 112.814 19.535C115.713 19.535 116.448 17.1481 116.448 15.9732C116.448 12.7786 114.209 12.1175 111.676 12.1175H105.473L105.473 12.0809ZM97.5443 24.9327C97.3609 24.8226 97.2507 24.6755 97.1772 24.5289L92.1853 12.0809H90.5703L85.5785 24.5289C85.5051 24.7124 85.3951 24.8593 85.2114 24.9327L84.3305 25.4102V25.6306H88.3681V25.4102L87.5974 25.0065C87.3403 24.8595 87.1569 24.6023 87.1569 24.2719C87.1569 24.1618 87.1935 24.0516 87.2303 23.9782L88.3314 21.2608H93.0298L94.131 23.9782C94.1678 24.0516 94.1678 24.1616 94.1678 24.2351C94.1678 24.4923 94.0578 24.7125 93.8742 24.8595C93.8374 24.896 93.8006 24.896 93.7641 24.9329L92.8833 25.4104V25.6307H98.4257V25.4104L97.5443 24.9327ZM88.6615 20.2694L90.6071 15.4223L92.5526 20.2694H88.6615Z" fill="#231F20"/>
</g>
<defs>
<clipPath id="clip0_99_2122">
<rect width="119" height="30" fill="white" transform="translate(0.439941)"/>
</clipPath>
</defs>
</svg>
