<svg width="102" height="30" viewBox="0 0 102 30" fill="none" xmlns="http://www.w3.org/2000/svg">
<g clip-path="url(#clip0_99_2134)">
<path d="M22.6514 12H26.036L26.8631 9.03795L34.023 4.62376L34.7887 2.00825H31.3964L31.0365 3.32013L25.7374 6.5462L22.4063 3.44389L22.8122 2H19.4275L18.7383 4.47525L23.5014 8.9637L22.6514 12ZM51.1302 7.94059L50.0045 11.9917H65.3198L66.0856 9.35974H54.423L59.5459 7.04125L55.541 4.64026H67.3874L68.1532 2H52.8378L51.6815 5.94389L53.3279 6.95875L51.1302 7.94059ZM6.13378 2.00825H2.77973L0 12H3.35405L6.13378 2.00825ZM17.7581 2.00825H14.695L13.6689 5.66337H6.01126L5.2455 8.30363H12.9032L11.877 11.9835H15.3153L18.0721 2.00825H17.7581ZM38.564 4.64026H47.1252L46.8878 5.46535L44.0086 6.76898H38.8473L38.0815 9.40099H44.5216L49.7977 7.00825L51.2297 2.00825H35.9144L33.1347 12H36.5117L38.564 4.64026ZM67.8392 8.65842L66.905 12H70.282C70.282 12 70.8563 9.92079 70.9941 9.467C69.9757 9.16172 68.9189 8.89769 67.8392 8.65842ZM78.7054 9.27723L83.5757 7.14026L85 2.00825H69.6847L68.2297 7.25578C71.7954 7.36556 75.326 8.04685 78.7054 9.27723ZM72.3342 4.64026H80.8878C80.7806 5.02805 80.6734 5.41584 80.6275 5.57261L78.0009 6.76898H71.7369C71.8671 6.32343 72.2577 4.92079 72.3342 4.64026Z" fill="black"/>
<path d="M100 30C97.7109 23.0649 94.2468 18.1403 90.3172 14.6571C93.8348 11.1584 96.2383 6.41299 96.6732 0C96.6732 0 95.2387 6.38182 87.5169 12.4675C76.0716 4.4961 62.3372 6.76364 62.3372 6.76364C70.3132 7.34377 78.0104 10.0024 84.6938 14.4857C77.4756 19.161 66.0302 23.213 48 23.3455C48 23.3455 73.8131 27.3195 87.8679 16.7688C92.6372 20.4222 96.7432 24.9002 100 30Z" fill="black"/>
<path d="M98.0001 3.49374C98.0013 3.19734 98.0903 2.90795 98.2559 2.6621C98.4214 2.41625 98.6561 2.22497 98.9303 2.11239C99.2045 1.99982 99.5059 1.97101 99.7965 2.02959C100.087 2.08817 100.354 2.23152 100.563 2.44155C100.772 2.65157 100.914 2.91885 100.972 3.20965C101.029 3.50045 100.999 3.80173 100.885 4.07545C100.772 4.34917 100.579 4.58307 100.333 4.74762C100.086 4.91217 99.7964 4.99998 99.5 4.99999C99.3023 5.00082 99.1063 4.96238 98.9236 4.88691C98.7408 4.81143 98.5748 4.70041 98.4353 4.56029C98.2958 4.42018 98.1855 4.25375 98.1107 4.07066C98.036 3.88758 97.9984 3.69148 98.0001 3.49374ZM100.756 3.49374C100.756 3.16222 100.625 2.84428 100.39 2.60986C100.156 2.37544 99.8378 2.24375 99.5063 2.24375C99.1748 2.24375 98.8568 2.37544 98.6224 2.60986C98.388 2.84428 98.2563 3.16222 98.2563 3.49374C98.2563 3.82526 98.388 4.1432 98.6224 4.37762C98.8568 4.61204 99.1748 4.74374 99.5063 4.74374C99.8378 4.74374 100.156 4.61204 100.39 4.37762C100.625 4.1432 100.756 3.82526 100.756 3.49374ZM100.244 4.33749H100L99.525 3.54999H99.1563V4.33749H98.9438V2.66875H99.6688C100.113 2.66875 100.256 2.83125 100.256 3.1125C100.256 3.39374 100.031 3.56249 99.7313 3.56874L100.244 4.33749ZM99.4563 3.40624C99.6938 3.40624 100.044 3.44999 100.044 3.10625C100.044 2.7625 99.8313 2.81875 99.6188 2.81875H99.1438V3.41249L99.4563 3.40624Z" fill="black"/>
</g>
<defs>
<clipPath id="clip0_99_2134">
<rect width="101" height="30" fill="white" transform="translate(0.439941)"/>
</clipPath>
</defs>
</svg>
