<svg width="127" height="30" viewBox="0 0 127 30" fill="none" xmlns="http://www.w3.org/2000/svg">
<g clip-path="url(#clip0_99_2118)">
<path d="M22.1495 29.3469C22.1495 29.4101 22.1707 29.389 22.1071 29.389C22.1071 29.2416 22.0859 29.389 22.1495 29.3469ZM29.6896 0H29.7955C30.0284 0.0210674 30.1979 0.189607 30.2402 0.400281C30.3038 0.695225 30.2191 0.505618 30.3673 0.73736C30.4944 0.926966 30.4732 1.22191 30.2826 1.39045C30.0496 1.60112 29.7319 1.39045 29.1601 1.64326C28.9906 1.72753 29.0542 1.7486 28.9483 1.875C28.8635 1.98034 28.8 2.0014 28.6941 2.08567C28.5035 2.21208 28.4399 2.40169 28.2493 2.52809C28.1646 2.59129 28.0587 2.63343 27.974 2.69663C27.5927 2.94944 27.508 3.01264 26.9573 3.01264C26.9997 3.20225 27.2115 3.47612 27.2962 3.83427C27.5504 5.05618 26.089 6.08848 24.8393 4.92978C24.6487 4.74017 24.4793 4.50843 24.2887 4.31882C23.5262 3.60253 23.1026 4.19242 23.3144 4.84551C23.3991 5.14045 23.5685 5.37219 23.7168 5.60393C23.8651 5.83567 24.0345 6.04635 24.2039 6.27809L26.449 8.67978C26.5549 8.78511 26.6185 8.86938 26.7244 8.99579C26.9997 9.29073 27.275 9.62781 27.508 9.96489C27.5927 10.0913 27.6563 10.1756 27.741 10.302C28.3552 11.2921 28.7153 12.2612 28.334 13.441C27.7198 15.4213 25.5383 16.4326 23.5262 15.7584C23.4203 15.7163 23.1661 15.611 23.1026 15.632L22.2977 15.9902C21.3658 16.3272 20.2433 16.4537 19.269 16.1798C18.9725 16.0955 18.6124 15.9059 18.4641 15.8638C18.3159 16.1166 18.0405 16.3272 17.7864 16.4747C16.6215 17.2121 15.6684 17.1067 14.9059 17.4649C15.3295 18.2655 16.4944 18.4551 17.1722 17.9284C17.4263 17.7177 17.4475 17.3385 17.7864 17.2753C18.7607 17.1067 18.5489 18.7289 17.3204 19.361C16.4732 19.7823 15.4566 19.7402 14.6306 19.2767C14.0799 18.9817 13.8257 18.6236 13.6986 18.5183C13.5716 18.7921 13.5292 19.2767 13.6351 19.6138C14.0375 20.8567 16.0708 20.4354 17.0663 20.2458C18.1464 20.0351 19.1843 19.7191 20.2645 19.5716C20.8363 19.4874 21.5564 19.4452 22.1071 19.5084C23.1026 19.6348 24.0769 20.0562 24.5428 20.9621C24.9029 21.6573 24.9241 22.3315 24.6911 23.0688C24.4581 23.743 24.0557 24.1222 23.4626 24.4171C23.6109 24.6278 23.7168 24.691 23.8015 24.986C23.971 25.4916 23.7803 25.9551 23.8439 26.1657C23.9074 26.3132 23.9286 26.3343 23.9498 26.5239C23.9921 26.8399 23.6956 27.5772 23.505 27.809C23.3779 27.9565 23.4203 27.8933 23.3356 28.1039C23.2297 28.3567 23.0814 28.3989 23.0602 28.6938C23.039 28.7992 22.9967 28.9677 23.0179 29.073C23.0602 29.3048 23.2297 29.4944 23.0602 29.7683C22.9967 29.8947 22.8696 30 22.7002 30.0211H22.5731C22.5307 30.0211 22.4884 30 22.446 29.9789C22.213 29.8736 22.4036 29.8947 22.1283 29.9368C22.0224 29.9579 21.8953 29.9157 21.8106 29.8525C21.6412 29.7472 21.5141 29.4944 21.6412 29.2205C21.7682 28.9466 21.853 28.9256 21.9165 28.6096C21.9377 28.4199 21.98 28.3778 21.9165 28.2514C21.853 28.125 21.8106 28.0618 21.8106 27.9143C21.7894 27.6615 21.8106 27.7458 21.7259 27.5351C21.6412 27.3244 21.6412 27.0295 21.62 26.8399C21.5988 26.6924 21.5988 26.5449 21.62 26.3975C21.6412 26.1236 21.7894 25.9972 21.9165 25.8076C21.62 25.8708 21.2176 25.7865 20.9634 25.7022C20.7092 25.618 20.4551 25.4284 20.328 25.2177C19.9679 24.7121 20.0315 23.9747 20.4127 23.5744C21.1752 22.7739 22.5943 23.0267 22.7002 22.5C22.7849 22.0997 22.5307 21.9312 22.2766 21.8258C21.387 21.4888 19.2266 22.0787 18.443 22.2683C16.9815 22.6264 16.0708 22.8581 14.567 22.8581C12.0042 22.8581 10.3522 20.1615 11.5595 17.7177C11.7924 17.2331 12.1737 16.8118 12.5337 16.4747C12.6396 16.3905 12.7879 16.3272 12.8091 16.1798C12.8938 15.632 12.7879 15.5478 13.0209 14.7472C13.1903 14.1573 13.4021 13.6728 13.7198 13.2303C13.8469 13.0407 14.0587 12.7669 14.2281 12.6194C14.3764 12.493 14.6941 12.198 14.8635 12.1559C14.8635 12.0084 14.7788 11.8188 14.7576 11.6503C14.5882 10.8076 14.8 9.90169 15.0542 9.14326C15.1177 8.93258 15.2236 8.36376 15.2871 8.21629C14.9483 8.21629 14.8424 8.25843 14.5882 8.36376C14.3976 8.4691 14.2281 8.57444 14.1011 8.72191C13.275 9.73315 13.974 10.3441 13.9952 10.5758C14.0375 10.8287 13.8469 11.0393 13.6986 11.1025C13.275 11.2921 12.8091 10.7444 12.6608 10.5337C12.4278 10.1545 12.3219 9.75421 12.4067 9.18539C12.5337 8.27949 12.9997 7.62641 13.7198 7.14185C13.9528 6.99438 14.567 6.67837 14.9059 6.67837C14.8424 6.42556 14.3552 6.17275 14.1222 6.08848C13.6986 5.94101 13.275 6.10955 13.0421 6.29916C12.5549 6.69944 12.216 7.33146 11.9831 7.98455C11.4959 9.33287 11.157 10.7865 10.5852 12.1138C10.3734 12.6194 10.1404 13.0197 9.82269 13.441C9.52617 13.8413 9.16611 14.1573 8.74251 14.4101C7.36581 15.2107 5.60787 14.4733 5.09955 13.2303C4.93011 12.809 4.90893 12.6404 4.90893 12.0716C4.44297 12.3034 3.84993 12.0084 3.51105 11.7346C3.04509 11.3553 2.85447 11.6924 2.36732 11.0183C2.30378 10.9129 2.21906 10.8708 2.13434 10.7654C2.00726 10.5969 1.94372 10.323 1.79546 10.1545C1.5413 9.88062 1.77428 9.90169 1.41422 9.60674C0.927083 9.22753 0.715283 9.45927 0.503482 9.12219C0.355222 8.84832 0.439942 8.63764 0.630562 8.4691C0.694102 8.42697 0.672922 8.44803 0.715282 8.42697C0.863543 8.30056 0.821183 8.08989 1.07534 7.96348C1.6472 7.71067 1.73192 8.38483 1.98608 8.59551C2.13434 8.72191 2.21906 8.82725 2.43086 8.84832C2.72739 8.86938 2.81211 8.99579 3.17217 9.05899C3.40515 9.10112 3.93465 9.375 4.12527 9.5014C4.33707 9.64888 4.37943 9.77528 4.50651 10.007C4.67595 9.88062 4.97247 8.99579 5.84085 8.97472C6.60333 8.95365 7.04811 9.33287 7.23873 9.90169C7.59879 10.9129 6.34917 12.3455 7.30227 12.5351C8.40363 12.7669 9.33555 8.91152 9.61089 7.90028C9.69561 7.62641 9.80152 7.31039 9.90742 7.03652C10.4581 5.39326 11.4536 3.64466 13.4233 3.56039C13.5716 3.56039 13.5927 3.53933 13.6775 3.53933L14.4399 3.64466C15.9437 4.02388 16.918 5.11938 17.2992 6.5941C17.384 6.91011 17.2992 7.01545 17.5958 7.18399C18.0194 7.4368 18.3582 7.77388 18.6971 8.11096C18.9936 8.4059 19.2054 8.76405 19.4172 9.12219C19.7349 9.62781 19.9256 10.302 19.9467 10.9129C20.328 10.9972 20.6245 11.1025 20.9634 11.2921C21.5564 11.6081 21.98 12.0927 22.446 12.5562C22.5943 12.7037 22.9543 13.1461 23.1449 13.2093C23.1661 13.1039 23.2297 13.0407 23.272 12.9143C23.5262 12.177 23.1238 11.3343 22.4248 11.0393C22.1071 10.9129 21.9589 11.0183 21.7471 10.9551C21.154 10.7655 21.2387 9.94382 22.3189 9.83848C23.6109 9.71208 24.6699 11.0393 24.8393 12.2612C24.8817 12.6404 24.8393 13.0407 24.7546 13.3778C24.7334 13.4831 24.6911 13.5885 24.6911 13.6938C25.03 13.6938 25.4959 13.4199 25.6442 13.2303C26.5126 12.198 25.1994 10.7865 24.5428 10.007L23.8651 9.29073C23.4838 8.91152 22.7425 8.08989 22.3825 7.64747C22.3189 7.58427 22.2977 7.54214 22.2342 7.47893C21.5353 6.57303 20.4974 4.92978 21.2599 3.41292C21.7471 2.44382 22.8272 1.85393 23.9498 2.0014C24.6064 2.08567 24.6911 2.31742 24.9452 2.38062C25.0511 1.91713 25.39 1.62219 25.7924 1.41152C26.3431 1.13764 25.9407 1.47472 26.3431 1.07444C26.5337 0.884831 26.6185 0.821629 26.915 0.758427C27.0421 0.73736 27.1903 0.716292 27.2962 0.695225C27.5716 0.65309 28.2917 0.65309 28.5247 0.674157C28.6729 0.695225 28.7788 0.632023 28.8847 0.589888C29.393 0.316011 29.393 0.0210674 29.6896 0ZM22.5943 29.4101C22.6154 29.4522 22.6366 29.4312 22.5943 29.4944L22.5519 29.4101L22.4036 29.1152C22.2342 29.1994 22.2766 29.2626 22.1283 29.3469C22.2766 28.9256 22.3401 29.2626 22.446 28.1671C22.3613 28.0618 22.2766 28.0407 22.2554 27.8511C22.213 27.4298 22.0859 27.3455 22.0859 26.9874C22.0859 26.7978 22.0436 26.7135 22.0648 26.5449C22.0859 26.2079 22.3613 26.1236 22.4248 25.8708C22.6578 24.8806 20.8787 25.8497 20.561 24.7121C20.2009 23.3848 22.2342 23.5955 22.8696 23.0478C23.3144 22.6896 23.1873 21.9733 22.8272 21.6362C22.1071 20.9831 20.328 21.3202 19.3961 21.5309C17.4263 21.9733 14.3764 23.0899 12.7244 21.7626C12.0678 21.236 11.4112 20.2037 11.6442 18.8553C11.7924 17.9494 12.5126 16.8961 13.2962 16.4747C13.2327 15.4846 13.4657 14.6419 13.8681 13.8834C14.207 13.2514 14.8 12.5351 15.5201 12.3455C15.4778 12.198 15.3507 12.0716 15.2871 11.861C15.0753 11.2921 15.1389 10.618 15.266 10.0702C15.4354 9.3118 15.7743 8.65871 15.7743 7.83708C15.626 7.6264 14.7365 7.77388 14.5247 7.85815C14.1434 8.00562 13.8681 8.23736 13.6775 8.4691C13.4657 8.74298 13.2962 9.03792 13.2327 9.45927C13.148 10.0492 13.2962 10.1756 13.4657 10.639C13.3174 10.5758 13.1268 10.3441 13.0421 10.1966C12.4278 9.03792 13.508 7.07865 15.6684 7.07865C15.6684 6.50983 14.8 5.70927 14.1011 5.58287C13.0632 5.37219 12.4702 6.13062 12.1101 6.63624C10.797 8.49017 10.5216 14.3258 7.42935 14.2837C6.49743 14.2626 5.84085 13.6728 5.56551 13.0618C5.37489 12.6404 5.37489 12.2402 5.48079 11.7556C5.60787 11.1868 5.90439 10.8076 5.73495 10.6601C5.58669 10.6812 5.54433 10.8076 5.48079 10.934C5.31135 11.2921 5.05719 11.6081 4.59123 11.6713C4.23117 11.7135 3.99819 11.5449 3.80757 11.3975C3.70167 11.3132 3.63813 11.2079 3.48987 11.1657C3.17217 11.0604 2.96037 11.1447 2.76975 10.8076C2.66385 10.639 2.62149 10.639 2.51558 10.5126C2.43086 10.4073 2.40968 10.2809 2.34614 10.1334C2.26142 9.98595 2.19788 9.94382 2.13434 9.83848C1.98608 9.60674 2.19788 9.62781 1.9649 9.45927C1.5413 9.14326 1.47776 8.99579 0.927083 8.89045L1.35068 8.86938L1.28714 8.44803C1.39304 8.74298 1.52012 8.86938 1.77428 9.05899C2.40968 9.58567 2.11316 9.2486 2.4944 9.35393C2.64266 9.39607 2.70621 9.48034 2.91801 9.52247C3.10863 9.56461 3.21453 9.54354 3.36279 9.64888L3.72285 9.83848C4.14645 10.0492 4.06173 10.7022 4.54887 10.6812C4.84539 10.6812 4.93011 10.323 5.07837 10.0913C5.37489 9.62781 5.86203 9.2486 6.51861 9.69101C7.06929 10.0702 6.73041 10.8919 6.58215 11.4185C6.34917 12.177 6.39153 12.6826 7.00575 12.9775C8.12829 13.5042 8.93313 11.7135 9.25083 10.9129C10.0133 8.84832 10.4793 5.7514 11.9407 4.6559C12.915 3.93961 14.2705 3.83427 15.3719 4.52949C15.8378 4.82444 16.1767 5.18258 16.452 5.66714C16.9604 6.55197 16.8333 7.28933 17.0451 7.41573C17.384 7.64747 17.5322 7.64747 17.9558 8.02669C18.8877 8.84832 19.6079 9.96489 19.4384 11.3975C20.4551 11.3343 21.1328 11.9242 21.62 12.3666C21.7894 12.514 21.8741 12.6404 22.0012 12.7879C22.5519 13.3567 22.5943 13.3989 23.2297 13.8624C23.4415 13.7149 23.6956 13.2725 23.7803 12.9143C23.9921 12.1138 23.6321 11.2921 23.0179 10.8076C22.6154 10.4916 22.3613 10.5126 21.8953 10.4494C22.9543 9.81742 24.4793 11.1868 24.331 12.8301C24.2887 13.4199 24.1192 13.6728 23.9074 14.1152C24.4793 14.4312 25.7077 13.9677 26.1313 13.3357C26.6185 12.5983 26.3008 11.6292 25.8983 10.9761C25.6442 10.5758 25.3477 10.1756 25.0511 9.85955L23.3779 8.04775C22.7637 7.4368 22.1283 6.61517 21.7471 5.77247C20.8151 3.6868 22.3613 2.08567 24.0133 2.46489C24.9876 2.69663 25.4324 3.6868 25.623 3.77107C26.0254 3.93961 25.5171 3.20225 25.4747 3.07584C25.2629 2.50702 25.4747 2.0014 26.0466 1.76966C26.5337 1.58006 26.3008 1.76966 26.6608 1.36938C26.8514 1.15871 27.1056 1.15871 27.4233 1.09551C27.6351 1.05337 27.7198 1.09551 27.9104 1.11657C28.0799 1.13764 28.207 1.05337 28.3552 1.07444C28.567 1.09551 28.4823 1.20084 28.7365 1.11657C28.9271 1.0323 29.3083 0.926966 29.4566 0.800562C29.5625 0.716292 29.5837 0.632022 29.6896 0.547753C29.6472 0.674157 29.5625 0.758427 29.5201 0.863764C29.6048 0.926966 29.7743 0.948034 29.9014 0.969101C29.5625 1.0323 29.5837 0.905899 29.1812 1.07444C28.9906 1.15871 28.7788 1.20084 28.6306 1.30618C28.567 1.49579 28.5882 1.53792 28.4188 1.64326C28.1858 1.79073 28.0799 2.04354 27.8469 2.16994C27.7834 2.21208 27.7198 2.21208 27.6775 2.25421C27.5927 2.29635 27.5927 2.31742 27.5292 2.38062C27.1903 2.65449 26.9573 2.40169 26.6185 2.50702C26.3219 2.59129 26.2372 2.88624 26.4067 3.16011C26.7032 3.6236 26.9997 4.21348 26.5337 4.69803C26.0254 5.22472 25.39 4.86657 25.0511 4.50843C24.797 4.21348 24.3522 3.66573 23.8651 3.51826C23.2508 3.34972 22.7002 3.89747 22.7002 4.46629C22.7002 5.41433 23.6533 6.57303 24.2675 7.18399C24.3522 7.26826 24.4369 7.3736 24.5216 7.47893C24.6064 7.58427 24.7123 7.64747 24.797 7.75281C25.157 8.13202 25.8136 8.76405 26.1101 9.14326L26.5973 9.71208C27.1691 10.3862 27.7834 11.25 27.8893 12.177C28.0587 13.5885 27.2115 14.5787 26.449 15.0421C25.6865 15.5056 24.6911 15.611 23.7803 15.3792C23.505 15.316 23.2085 15.1475 22.9755 15.1053C22.8061 15.1896 22.7002 15.2949 22.4884 15.4003C22.3189 15.4846 22.1071 15.5688 21.9377 15.632C20.921 15.9691 19.6926 16.0323 18.7183 15.5267C18.5489 15.4424 18.4006 15.316 18.2523 15.2317C17.8499 16.3062 16.3673 16.5801 15.3295 16.8539C14.7788 17.0014 14.5035 17.1699 14.207 17.2542C14.2493 17.4649 14.334 17.6545 14.4399 17.823C14.7576 18.3287 15.1389 18.6447 15.8166 18.75C16.685 18.8975 17.4475 18.5604 17.8499 17.823C17.9346 18.8764 16.5368 19.2978 15.6896 19.1924C14.7153 19.066 14.1222 18.4761 13.6351 17.7177C13.1903 18.139 12.8303 19.066 13.1268 19.8876C13.9528 22.0576 18.1464 20.4775 19.8408 20.1826C21.6623 19.8666 23.4415 19.9719 24.098 21.4045C24.4369 22.1629 24.2039 23.1952 23.738 23.6376C22.7849 24.5225 21.853 24.1854 21.7047 24.4803C21.7894 24.691 22.1071 24.5646 22.3613 24.5857C23.1026 24.6489 23.4203 25.1966 23.2297 25.9972C23.1661 26.2711 23.3567 26.3764 23.3567 26.6503C23.3567 26.8399 23.2297 27.0716 23.1661 27.2823C23.0814 27.5351 22.9543 27.5772 22.8484 27.7669C22.679 28.125 22.8484 27.9986 22.5095 28.2303C22.4884 28.4621 22.446 28.6517 22.4248 28.8834C22.4672 29.1362 22.5519 29.1362 22.5943 29.4101ZM122.755 13.7781H118.264V9.16433H122.945C124.047 9.16433 124.894 10.007 124.894 11.0393C124.894 11.9663 125 12.6194 124.28 13.2935C123.898 13.6096 123.454 13.7781 122.755 13.7781ZM116.697 7.73174V21.3413C116.697 21.4256 116.718 21.4466 116.803 21.4466H118.264V15.3371H121.039C121.145 15.3371 121.441 15.8848 121.526 16.0534L123.305 19.1292C123.475 19.382 123.602 19.6348 123.75 19.9087L124.661 21.4466H126.44C125.868 20.3722 125.042 19.0871 124.47 18.0337C124.301 17.6966 122.945 15.4635 122.924 15.3371C123.136 15.3371 123.475 15.2949 123.687 15.2528C123.941 15.2107 124.152 15.1264 124.343 15.0421C125.572 14.5365 126.44 13.2514 126.44 11.9242V11.0604C126.44 9.18539 124.894 7.64747 123.009 7.64747H116.803C116.739 7.6264 116.697 7.64747 116.697 7.73174ZM45.2357 13.7781H40.7455V9.16433H45.4687C46.4853 9.16433 47.3537 10.007 47.3537 10.8919C47.3537 11.7767 47.4808 12.7037 46.7183 13.2935C46.5065 13.4621 46.3794 13.5463 46.1041 13.6517C45.8499 13.736 45.5534 13.7781 45.2357 13.7781ZM39.1994 21.4256H40.7455V15.316H43.5201C43.626 15.316 43.6684 15.4635 43.7743 15.6531C43.859 15.8006 43.9225 15.8848 44.0073 16.0323C44.3461 16.6433 44.7909 17.3385 45.1086 17.9494L47.1207 21.4256H48.8998C48.8575 21.236 48.1797 20.1615 48.0315 19.9087L46.9301 18.0126C46.4641 17.191 45.7864 16.1166 45.3628 15.316C45.8499 15.316 46.4218 15.2107 46.7818 15.0421C46.9936 14.9579 47.1631 14.8736 47.3325 14.7472C47.7985 14.4312 48.2856 13.9256 48.5398 13.441C49.0058 12.5562 48.8998 11.7978 48.8998 10.8076C48.8998 10.1756 48.6033 9.48034 48.2433 9.01685C47.6079 8.15309 46.6336 7.6264 45.511 7.6264H39.1994V21.4256ZM77.9588 9.16433H85.0753L82.4067 13.757C81.5171 15.2528 80.6275 16.8961 79.738 18.3497C79.5897 18.6025 79.4415 18.8343 79.2932 19.1081C79.1449 19.382 78.9967 19.6138 78.8484 19.8876L77.9588 21.4466H86.8545C86.9604 21.257 87.7017 20.0562 87.7228 19.9087H80.6275L81.0723 19.1503C81.2206 18.8764 81.3688 18.6447 81.5171 18.3708C82.2372 17.1699 82.9997 15.7584 83.7198 14.5576L86.3885 9.96489C86.5156 9.75421 87.6593 7.81601 87.7017 7.64747H77.9588V9.16433ZM57.7955 21.4256H59.4687C59.511 21.257 59.6381 21.0042 59.7017 20.8146L60.443 19.0028C60.7607 18.2022 61.0995 17.4017 61.4384 16.5801L63.387 11.7346C63.5141 11.882 66.7123 19.8666 67.0935 20.7935C67.1782 20.9831 67.2841 21.236 67.3265 21.4256H68.9997L63.5564 8.04775C63.5353 7.98455 63.5141 7.92135 63.4717 7.83708C63.4505 7.77388 63.4505 7.77388 63.4293 7.73174C63.4082 7.66854 63.4082 7.66854 63.3658 7.6264L59.1722 17.9705C58.9392 18.5393 58.7062 19.1081 58.4732 19.677C58.3673 19.9508 58.2402 20.2669 58.1132 20.5407L57.7955 21.4256ZM97.3386 9.16433H106.213C106.255 8.93259 107.039 7.83708 107.06 7.6264H97.3598L97.3386 9.16433ZM97.3386 21.4256H106.213C106.234 21.2992 106.954 20.1194 107.081 19.8876H97.3386V21.4256ZM97.3386 15.2107C97.3386 15.2949 97.3598 15.316 97.4445 15.316H106.107C106.213 15.316 106.277 15.1264 106.382 14.9789L106.848 14.1784C106.933 14.0309 106.997 13.9045 107.081 13.7781H97.3386V15.2107Z" fill="black"/>
<path d="M15.0542 15.1896C15.1178 14.9368 15.3931 14.6629 15.5202 14.4944C15.6261 14.368 15.6049 14.4101 15.7108 14.3048C15.9226 14.1152 16.1556 13.9466 16.4521 13.8834C16.6004 13.8624 16.6427 13.9045 16.7275 13.9677C16.7275 14.4101 16.4098 14.5787 16.0497 14.7472C15.8803 14.8525 15.2449 15.1686 15.0542 15.1896ZM14.207 16.0323C14.6518 15.9059 15.8591 15.4424 16.2615 15.2107C16.6004 15.0211 16.8545 14.8525 17.0663 14.5997C17.8288 13.6728 16.5368 12.7247 15.1813 14.1573C14.7789 14.5787 14.3129 15.2318 14.207 16.0323ZM17.4476 11.5239H17.3417C16.9393 11.5239 17.0663 10.2177 17.0875 9.98597C17.1087 9.81743 17.1511 9.62782 17.1511 9.43822L17.1722 9.48035C17.1934 9.52249 17.1934 9.50142 17.2146 9.54356C17.7017 10.2388 17.8076 11.5239 17.4476 11.5239ZM16.8545 8.34271C16.7486 9.24861 16.2403 10.9129 16.8122 11.7346C17.0028 12.0084 17.3629 12.1559 17.7229 11.9452C18.4854 11.4607 18.083 9.85957 17.5111 9.01687C17.3629 8.82726 17.0028 8.36378 16.8545 8.34271ZM19.1632 13.441C19.1632 12.8511 20.2645 13.5253 20.3704 13.6096L21.1329 14.1784C20.6458 14.1784 20.3069 14.1363 19.9468 14.0098C19.7774 13.9677 19.1632 13.6938 19.1632 13.441ZM22.2554 14.4944L21.5141 13.8624C18.9725 11.6714 18.2101 13.1882 18.9725 13.9677C19.8409 14.8525 21.1541 14.7472 22.2554 14.4944Z" fill="#EEEBE7"/>
<path d="M14.207 16.0323C14.3129 15.2317 14.7789 14.5787 15.1813 14.1573C16.5368 12.7247 17.8288 13.6938 17.0663 14.5997C16.8545 14.8525 16.6003 15.0421 16.2615 15.2107C15.859 15.4424 14.6518 15.9059 14.207 16.0323ZM22.2554 14.4944C21.1752 14.7472 19.8621 14.8736 18.9725 13.9677C18.1888 13.1882 18.9725 11.6503 21.5141 13.8624L22.2554 14.4944ZM16.8545 8.3427C17.0028 8.36377 17.3628 8.82726 17.5111 9.01686C18.0829 9.83849 18.4854 11.4396 17.7229 11.9452C17.3628 12.177 17.0028 12.0295 16.8121 11.7346C16.2403 10.9129 16.7486 9.2486 16.8545 8.3427ZM22.1495 29.3469C22.2978 29.2837 22.2554 29.1994 22.4249 29.1152L22.5731 29.4101H22.6155C22.5731 29.1362 22.4884 29.1362 22.5308 28.8202C22.5731 28.5885 22.5943 28.3989 22.6155 28.1671C22.9544 27.9354 22.7849 28.0407 22.9544 27.7037C23.0603 27.493 23.1873 27.4719 23.2721 27.2191C23.3356 27.0295 23.4627 26.7767 23.4627 26.5871C23.4415 26.3343 23.2509 26.2079 23.3356 25.934C23.5262 25.1334 23.2085 24.6067 22.4672 24.5225C22.2131 24.5014 21.8742 24.6067 21.8106 24.4171C21.9589 24.1222 22.8696 24.4593 23.8439 23.5744C24.3311 23.132 24.5429 22.0997 24.204 21.3413C23.5474 19.9087 21.7683 19.8034 19.9468 20.1194C18.2524 20.4143 14.0587 22.0155 13.2327 19.8244C12.915 19.0028 13.2751 18.0759 13.741 17.6545C14.2282 18.4129 14.8212 19.0028 15.7955 19.1292C16.6215 19.2346 18.0194 18.8132 17.9559 17.7598C17.5534 18.4972 16.791 18.8343 15.9226 18.6868C15.266 18.5815 14.8848 18.2655 14.5459 17.7598C14.44 17.5913 14.3553 17.4017 14.3129 17.191C14.6094 17.1067 14.8848 16.9171 15.4354 16.7907C16.4733 16.5379 17.9559 16.243 18.3583 15.1685C18.5277 15.2317 18.6548 15.3582 18.8242 15.4635C19.7985 15.948 21.027 15.9059 22.0436 15.5688C22.2342 15.5056 22.4249 15.4214 22.5943 15.3371C22.8061 15.2317 22.912 15.1475 23.0814 15.0421C23.2932 15.0843 23.5898 15.2528 23.8863 15.316C24.797 15.5478 25.7925 15.4424 26.555 14.9789C27.3174 14.5155 28.1646 13.5253 27.9952 12.1138C27.8893 11.1868 27.2751 10.3441 26.7032 9.64888L26.2161 9.08006C25.8984 8.70085 25.263 8.06883 24.9029 7.68961C24.8182 7.58428 24.7123 7.52108 24.6276 7.41574C24.5429 7.3104 24.4581 7.20506 24.3734 7.12079C23.7592 6.50984 22.7849 5.3722 22.8061 4.4031C22.8061 3.83428 23.3568 3.28652 23.971 3.45506C24.4581 3.58147 24.8817 4.15029 25.1571 4.44523C25.496 4.80338 26.1314 5.16152 26.6397 4.63484C27.1056 4.15029 26.8091 3.5604 26.5126 3.09692C26.322 2.82304 26.4279 2.5281 26.7244 2.44383C27.0633 2.33849 27.2963 2.5913 27.6351 2.31742C27.6987 2.27529 27.6987 2.25422 27.7834 2.19102C27.8469 2.14888 27.8893 2.14888 27.9528 2.10675C28.1858 1.98034 28.2917 1.72754 28.5247 1.58006C28.6941 1.47473 28.673 1.45366 28.7365 1.24299C28.8848 1.13765 29.0966 1.09551 29.2872 1.01124C29.6684 0.863772 29.6472 0.969109 30.0073 0.905906C29.8802 0.884839 29.7108 0.863772 29.6261 0.800569C29.6684 0.674165 29.7531 0.610963 29.7955 0.484558C29.6684 0.568828 29.6472 0.63203 29.5625 0.737367C29.4143 0.863772 29.033 0.969109 28.8424 1.05338C28.6094 1.15872 28.673 1.03231 28.4612 1.01124C28.3129 0.990176 28.207 1.07445 28.0164 1.05338C27.8258 1.03231 27.741 0.990176 27.5292 1.03231C27.2115 1.09551 26.9574 1.09551 26.7668 1.30619C26.4067 1.6854 26.6609 1.49579 26.1525 1.70647C25.5807 1.93821 25.3689 2.44383 25.5807 3.01265C25.623 3.13905 26.1314 3.85534 25.7289 3.70787C25.5383 3.6236 25.0935 2.63343 24.1193 2.40169C22.4672 2.02248 20.9422 3.6236 21.853 5.70928C22.2342 6.55197 22.8696 7.3736 23.4839 7.98456L25.1571 9.79636C25.4536 10.1124 25.7713 10.5126 26.0043 10.9129C26.4067 11.566 26.7244 12.5351 26.2373 13.2725C25.8137 13.9045 24.5852 14.368 24.0134 14.052C24.204 13.6096 24.3734 13.3567 24.437 12.7669C24.5852 11.1236 23.0603 9.75422 22.0013 10.3862C22.4672 10.4494 22.7214 10.4284 23.1238 10.7444C23.738 11.2289 24.0769 12.0506 23.8863 12.8511C23.8016 13.2093 23.5474 13.6517 23.3356 13.7992C22.7002 13.3146 22.6578 13.2935 22.1072 12.7247C21.9589 12.5773 21.8742 12.4509 21.7259 12.3034C21.2388 11.861 20.561 11.2711 19.5444 11.3343C19.7138 9.92276 18.9937 8.80619 18.0618 7.96349C17.6382 7.58428 17.5111 7.58428 17.151 7.35254C16.9392 7.22613 17.0663 6.4677 16.558 5.60394C16.2826 5.11939 15.9226 4.76124 15.4778 4.4663C14.3764 3.75001 13.0209 3.85534 12.0466 4.5927C10.564 5.68821 10.1193 8.78512 9.35677 10.8497C8.93317 11.6924 8.12833 13.4832 7.00579 12.9354C6.39157 12.6405 6.34921 12.1348 6.58219 11.3764C6.75163 10.8497 7.06933 10.0281 6.51865 9.64888C5.86207 9.1854 5.37493 9.58568 5.07841 10.0492C4.93015 10.2809 4.84543 10.6391 4.54891 10.6391C4.06177 10.6601 4.14649 10.007 3.72289 9.79636L3.36283 9.60675C3.21457 9.52248 3.10867 9.52248 2.91805 9.48035C2.70624 9.43821 2.6427 9.35394 2.49444 9.31181C2.1132 9.22754 2.40972 9.54355 1.77432 9.01686C1.54134 8.82726 1.41426 8.67978 1.28718 8.40591L1.39308 8.80619L0.969482 8.82726C1.52016 8.93259 1.5837 9.059 2.0073 9.39608C2.2191 9.56461 2.02848 9.54355 2.17674 9.77529C2.24028 9.88063 2.325 9.92276 2.38854 10.0702C2.45208 10.2177 2.47326 10.3441 2.55798 10.4494C2.6427 10.5759 2.70624 10.5759 2.81214 10.7444C3.00277 11.0604 3.21457 10.9972 3.53227 11.1025C3.68053 11.1447 3.74407 11.2711 3.84997 11.3343C4.04059 11.4817 4.29475 11.6503 4.63363 11.6082C5.09959 11.566 5.33257 11.25 5.52319 10.8708C5.58673 10.7444 5.62909 10.618 5.77735 10.5969C5.94679 10.7444 5.65027 11.1447 5.52319 11.6924C5.41729 12.1559 5.41729 12.5773 5.60791 12.9986C5.88325 13.6096 6.56101 14.1994 7.47175 14.2205C10.5429 14.3048 10.8182 8.46911 12.1314 6.61518C12.4914 6.10956 13.1056 5.35113 14.1223 5.56181C14.8 5.70928 15.6684 6.48877 15.6896 7.05759C13.5292 7.05759 12.4491 9.01686 13.0633 10.1756C13.148 10.323 13.3386 10.5548 13.4869 10.618C13.3174 10.1545 13.148 10.0281 13.2539 9.43821C13.3174 8.99579 13.4869 8.72192 13.6987 8.44804C13.8893 8.2163 14.1646 7.98456 14.5459 7.83709C14.7577 7.75282 15.6472 7.60534 15.7955 7.81602C15.7955 8.63765 15.4566 9.29074 15.2872 10.0492C15.1601 10.618 15.0966 11.2921 15.3084 11.8399C15.3719 12.0295 15.499 12.177 15.5413 12.3244C14.8212 12.5141 14.2282 13.2303 13.8893 13.8624C13.4869 14.6208 13.2539 15.4635 13.3174 16.4537C12.5338 16.875 11.8348 17.9284 11.6654 18.8343C11.4324 20.1826 12.0678 21.2149 12.7456 21.7416C14.3976 23.0688 17.4475 21.9523 19.4173 21.5098C20.3492 21.2992 22.1283 20.9621 22.8485 21.6152C23.2297 21.9523 23.3356 22.6475 22.8908 23.0267C22.2342 23.5534 20.2221 23.3638 20.5822 24.691C20.8999 25.8497 22.679 24.8806 22.446 25.8497C22.3825 26.1025 22.1072 26.1868 22.086 26.5239C22.0648 26.6924 22.1072 26.7978 22.1072 26.9663C22.1072 27.3244 22.2342 27.4087 22.2766 27.8301C22.2978 28.0197 22.3613 28.0407 22.4672 28.1461C22.3613 29.2626 22.2978 28.9256 22.1495 29.3469Z" fill="black"/>
</g>
<defs>
<clipPath id="clip0_99_2118">
<rect width="126" height="30" fill="white" transform="translate(0.439941)"/>
</clipPath>
</defs>
</svg>
